/* XPM */
static char *_6344f6c72614174955ddb340f5fe17aU6n7444teIIaoh6i[] = {
/* columns rows colors chars-per-pixel */
"72 72 256 2 ",
"   c #0C1301",
".  c #131503",
"X  c #141B01",
"o  c #1B1D03",
"O  c #1C1305",
"+  c #140D05",
"@  c #241A08",
"#  c #2A1C16",
"$  c #1C2302",
"%  c #1A2603",
"&  c #1E3204",
"*  c #222503",
"=  c #242B03",
"-  c #2A2D03",
";  c #232B0B",
":  c #282509",
">  c #352C06",
",  c #243302",
"<  c #2C3303",
"1  c #253B02",
"2  c #2C3B03",
"3  c #2A370B",
"4  c #323403",
"5  c #3C3403",
"6  c #343C03",
"7  c #3A3C03",
"8  c #37380A",
"9  c #292813",
"0  c #372917",
"q  c #2B3715",
"w  c #343B15",
"e  c #342D23",
"r  c #463A06",
"t  c #453716",
"y  c #4A3513",
"u  c #492A27",
"i  c #483726",
"p  c #563926",
"a  c #5B3637",
"s  c #512D30",
"d  c #6A393A",
"f  c #2D4303",
"g  c #2D4605",
"h  c #344303",
"j  c #3C4303",
"k  c #344B03",
"l  c #3C4B03",
"z  c #37470C",
"x  c #395305",
"c  c #364716",
"v  c #3D5518",
"b  c #2C4112",
"n  c #394826",
"m  c #3D5425",
"M  c #3E5336",
"N  c #3F6409",
"B  c #434404",
"V  c #444B03",
"C  c #4A4D04",
"Z  c #484709",
"A  c #564705",
"S  c #445203",
"D  c #4C5403",
"F  c #4D5B03",
"G  c #465807",
"H  c #525403",
"J  c #535C03",
"K  c #575907",
"L  c #494715",
"P  c #564717",
"I  c #475618",
"U  c #595615",
"Y  c #665607",
"T  c #685819",
"R  c #685208",
"E  c #4B6406",
"W  c #546203",
"Q  c #596303",
"!  c #586907",
"~  c #597506",
"^  c #576818",
"/  c #5A7717",
"(  c #4B6714",
")  c #666907",
"_  c #796805",
"`  c #667608",
"'  c #777906",
"]  c #676916",
"[  c #677B17",
"{  c #736F18",
"}  c #484926",
"|  c #584527",
" . c #475928",
".. c #535730",
"X. c #68482A",
"o. c #695928",
"O. c #765628",
"+. c #674737",
"@. c #764B38",
"#. c #725436",
"$. c #4B6528",
"%. c #556726",
"&. c #4B6435",
"*. c #597330",
"=. c #667727",
"-. c #716B2F",
";. c #743C45",
":. c #735247",
">. c #59764A",
",. c #536F48",
"<. c #6C714D",
"1. c #5F604E",
"2. c #8A7503",
"3. c #8B7205",
"4. c #845935",
"5. c #8A6E32",
"6. c #884C48",
"7. c #985B55",
"8. c #89534F",
"9. c #A3565A",
"0. c #98654B",
"q. c #986758",
"w. c #8F704E",
"e. c #A46759",
"r. c #A77858",
"t. c #AA774F",
"y. c #9C5862",
"u. c #AC526A",
"i. c #976A69",
"p. c #A96868",
"a. c #B66A67",
"s. c #B87669",
"d. c #B77579",
"f. c #AC736D",
"g. c #C65678",
"h. c #C97678",
"j. c #C96D76",
"k. c #C07F4F",
"l. c #873D4F",
"z. c #5D8309",
"x. c #5F8219",
"c. c #678809",
"v. c #678819",
"b. c #749518",
"n. c #778C0B",
"m. c #688B24",
"M. c #748837",
"N. c #779A37",
"B. c #718E2C",
"V. c #7EA139",
"C. c #54822F",
"Z. c #5E8251",
"A. c #799B48",
"S. c #668555",
"D. c #718F4F",
"F. c #75926C",
"G. c #7DA257",
"H. c #848905",
"J. c #8F8E0F",
"K. c #A38804",
"L. c #B0940C",
"P. c #BBA307",
"I. c #8A9331",
"U. c #B29131",
"Y. c #87A538",
"T. c #8FAA32",
"R. c #A0A51F",
"E. c #CFB008",
"W. c #CAAD31",
"Q. c #8D8F4F",
"!. c #B28755",
"~. c #85A548",
"^. c #87A858",
"/. c #93AF54",
"(. c #8B9B6E",
"). c #AE8C6C",
"_. c #88A966",
"`. c #94B56A",
"'. c #96B578",
"]. c #8EAD71",
"[. c #A6B770",
"{. c #A6B854",
"}. c #C9AB48",
"|. c #CA8E74",
" X c #CDA972",
".X c #D5A65B",
"XX c #AFC674",
"oX c #E6CA6D",
"OX c #E7CB4C",
"+X c #C95B85",
"@X c #D96888",
"#X c #CA7685",
"$X c #D77A87",
"%X c #D6738E",
"&X c #E26E8E",
"*X c #ED7B9C",
"=X c #E87595",
"-X c #EB7A96",
";X c #F37EA1",
":X c #BD7783",
">X c #B88C88",
",X c #89A786",
"<X c #9BBA87",
"1X c #94B090",
"2X c #A7BC8F",
"3X c #A5BDA6",
"4X c #9DB6A7",
"5X c #D38F8A",
"6X c #E98896",
"7X c #F3869C",
"8X c #E89496",
"9X c #CEA990",
"0X c #E8AE94",
"qX c #D69AA4",
"wX c #F483A4",
"eX c #FA8BA5",
"rX c #FB8CAB",
"tX c #F886A7",
"yX c #FC92AD",
"uX c #F495A9",
"iX c #FF8CB1",
"pX c #FD95B2",
"aX c #FC9AB5",
"sX c #FD9DBA",
"dX c #FB99BA",
"fX c #E98EA5",
"gX c #DBB7AC",
"hX c #FBA5BB",
"jX c #F2B1B1",
"kX c #A8C488",
"lX c #A9C496",
"zX c #B4C894",
"xX c #B6CBBA",
"cX c #B0C7A9",
"vX c #9FC18D",
"bX c #C3D5B9",
"nX c #F0C69E",
"mX c #FEA5C3",
"MX c #FCABC5",
"NX c #FDADCA",
"BX c #FBB4C9",
"VX c #FDBBD5",
"CX c #FEBCDA",
"ZX c #FEB4D3",
"AX c #F7ACCB",
"SX c #FEBDE2",
"DX c #FF95C0",
"FX c #BCCFC2",
"GX c #C6D7C8",
"HX c #CCDAD2",
"JX c #FDC2DD",
"KX c #FBC4D6",
"LX c #F6C3CA",
"PX c #FFC3E2",
"IX c #FECBE8",
"UX c #FFD3F4",
/* pixels */
") K D D H H H H J Q Q Q Q Q Q Q ! ! ! Q H %.I >.&.$.( ^ ` F Q Q { VXVXBXBXNXoXOXoXW.H.n.n.H.|.8X] E M.^.Q.) Q w.f.<.$.h < - < h E ~ v.=.I = 2 E ",
"` ! H D D D D C H Q Q Q Q Q Q Q Q Q Q Q D $.I  .v >.$.E J D Q J Q.UXIXIXIXPX0XP.H.' ) J J ) 5XfX{ c.Q.Q.] F r.hXjX!.] *.L 7.:.h j ! *.%.$.b = 6 ",
"` ! K D D D C C H J J J J J Q Q Q Q Q J V I %.>.&.&.I F H J Q J 9XUXIXIXIXIXKX0X X0X.XJ.] o.o.-.Y D K ] S j 5XIXBX XQ.F...i.Q.! 6 l k G *. .= * ",
"` ~ ! H D C C C C H H H J J J Q Q Q Q F I z &.v v z k S F J J ' W.jXIXIXIXLX0XgXgXnX X-.o.o.C F ) H V D J h f.PXVX|.F.,X<.%.! L ..j h I >.>.8 X ",
"~ ! W J D C C V C F H H J J J J Q Q J V m x c f f h l S D F J H.W.LXIXIXIXLX}.J.~.Q.U 8 H W l E Q C V Q =.l t.VXVX>X(.F.I l 6 w } 4 L Q.(.(.*.= ",
"~ ~ ! W F C C B V D H H H H H J J Q S 6 h v b g c h k D D V 5.0XJXUXIXIXUXIXJXjX).=.6 j V F %.( ] 5.5.r.f.T 5.).(.(.].*.2 < , 4 0 * r { T z U F ",
"~ ~ ! ! W D D V B C D F F H F J Q D 6 2 h z c z g f l V l -.).9XgXLXKXLXgXgXLXqX=.! l V V A.^.~ w.VXPXCXMXd.w.F.(.<X'.*.-.5Xs.@.8 : : > - @ * - ",
"! ! E E F F C C B V D D D F F J S 2 , 2 z 3 , 2 1 f V 6 ).w.j V F ] =.] Q J { ] G E ! W F N.I.F w.BX>X2X2X[.(.].1XcXQ.S |.5X5Xi.i 0 @ : o . . . ",
"H Q E F V w.).V Z B V S S D D l 2 , , 2 2 3 1 1 1 h j K ).Z V D F F F J F H J Q ` ` ! W G E ~ F =.!.) =.G.G.D.*.D.(.I %.I.^ w w 7.p.a 0 9 * o . ",
"C F D V U BXIX-.j B l h V l 6 , , 2 2 2 = , , , 2 j S ~ 6 7 V V D F H D C H H Q ! D D D S f G J ! v.|.jX0X!.V c 3 < 3 L 4 = t e.|.|.7.i i 0 o C ",
"V C V 7 > gXUXKXo.7 B J.3.2 2 2 , 2 6 , , , , 2 6 j G j 6 j V V C D V V H H { 5._ ' ) J F H G C ^ A.(.).).w.L : * 4 F H O.@.0.6XmXuXa.| > @ B ~ ",
"V V j ).i.u BXAX>X5 }.oXU.6 2 3 2 6 < & , , , 6 6 j j 6 7 7 B B V B B C D H :.:.-.O.P 8 4 H } w w ....+.i ; : < 6 C ` ' !.5X8XhXmXuX4.5 * - ) F ",
"B B l ] LX:.d :.w.V }.}. X< 2 2 6 6 , , , 1 6 6 2 h 6 7 j j j j 7 B C V A q.y.w.=.j 7 7 4 7 j < 4 X.e.6Xe.< % b h Z ) Q W Q ] 5.!.|.T 4 * ) ~ E ",
"j l B h -.BX0 > B r A }.}.< 2 2 6 < 2 3 b 6 6 , , h 7 j j j j 7 B Z B T qXPXjXU.' K H H D B j 6 4 r P P o.L , 2 2 j K H J J J J W ) Q - j c.^ ! ",
"7 7 j C l 9X5XO 8 > r E.L.< 2 6 < w m m z < = 8 T j 7 j 7 7 7 B B V 5.AXIXJXjX}.2.' H.n.` S 6 < 4 7 7 6 I +.< & , < H H D H ! ) ! Q Q D H [ =.[ ",
"7 7 7 Z V w.gX> @ > > 2.K.j 6 7 2 c c 2 Z O.< r U h 7 7 6 7 B B B { jXIXJXJXPXBX.XR.H.! F V j 7 l j j Z P 7.p.@.3 6 J J H H H J Q W H J ) [ / ) ",
"4 4 7 5 @ t ).=.: 8 O r 3.Y r 7 8 3 c c o.jXA t r.U 6 6 7 r B C K ! ) |.JXJXJXJXhX5.S V B 6 4 B C j C O.a.hXZX|.{ ` ` H H H C C D F H H H ~ [ J ",
"V H J 5 p s O } } > r + A A r I &.,.,.c ).UXe.4.UXw.< 7 r B P o.J K J Y 0XPXVXCX!.V C B < - r K H j B 0.mX5X5.W E W ! W H H F C Z V D D D W ` C ",
"K H O.>XPXUX>X0 @ : Z @ : r r G &. .m j qXUXqX+.dX+.7 B B H U H H D C 5.jXJXPX0XK V l A P C _ K.J 6 z *.!.H l F E W ! ! F D F D C B B V S F ~ B ",
"B Z i.>X>XqXIX9Xc O : t O @ 5 l h 1 h l O.VXZXs :.} K Z B K { C H T r.BXPXCXJXt.j H 5.8Xk.2.P.P.J 2 v ^ S F W W W W E F G G D D C C B B B F D } ",
"< - * $ $ $ t f._.<.9 @ : + 4 6 h 8 B D V !.5Xi n %.U U H ^ !.5X8XjXJXJXCXJXMX5.0.5XBXZXU.K.E.L.J 6 h 7 7 W W W F D S l l V l l l V V B 7 D B } ",
"< < < < - - % $ L (.<.@ O O @ L U F ) K H T | w  .H w.r.%.^  XIXPXIXJXKXJXCXBXMXVXPXPXBXU.K.K._ H 7 - - * Z Q G F S l h 6 6 6 j j j h L X.H H i ",
"< < < = = = - < - V =.=.B O + w o.-.[ ` J z } ..%.=.-.-.*.{ oXnXoXnXKXSXVXVXCXCXVXjX|.t.Y H C B B 7 - = % p 5X] G S l h h h 6 6 6 2 6 H 8.t B 0 ",
"< < < < - - < < 4 #.w.).w.B O O i ..-./ =.=.M.M.M.D.M.D.] U.oXoXOXOXOXnXSXVXVXVXVXhX5X5X0.B B 7 6 8 > : $ @.uX{ V V V l l h j j L 0.p.P C r 5 0 ",
"< < < - = - - - >XIXIXUXPX!.5 + @ * 4 -.-.l B Z { { { { 2.L.}.}.W.E.E.E.oXCXVXVXVXVXCXhX0.7 4 - * * : * > d h.T h 6 8 L #.I 2 < 8 8.#Xq.} A 5 O ",
"- = = = < = - 5XUXJXJXPX0XU._ > : O + :.i.6 8 Z 3._ _ 3.3.K.U.}.W.E.E.E.E.0XCXZXVXBX!.H l j < = % = < = p :.p.X.2 8 < 8 7.i.I I  . .<.:.0 O t 0 ",
"= = = = = r qXUXIXIXPXjX3.U.J.A 7 > O O 0 t 7 Y A A A Y 3.K.L.W.W.E.E.E.E.W.VXZXVX).G ( *. .c z l V j 6 8 #.+.+.+...} } -.<.1.....e 9 o . . +.+.",
"= = < Z ( w.).).>XjXIX!.K.W.3.H B > @ O + @ r A r r r A R 3.L.L.L.P.P.E.E.P.0XCXhXQ.M.Q.M.=./ J V j 7 7 5 - 0 +.:.7.y.<.m.U t : * i 0 . X X 9 0 ",
"4 %.M.*.$.x g g g G w.I.H.) C A r < 2 > @ + : r 5 r r r A R 3.2.K.K.K.K.L.K..XSXBXjXhX Xc.c.W B 7 7 4 5 y 8.p.4.$XaX|.[ C < = % = i 9 . X o ; 9 ",
"D.S. .c c c  . . .v x x G 6 6 Z 4 6 l W ! F B 5 5 r r A A R Y 3.2.2.K.K.2.2.!.CXBXZXZX5XB.H 7 j 7 4 0.6.y.mXp.a.mX8X{ H V V < * $ X X X X $ 9 q ",
",.c m ,.,.&.&.,.,.>.>.>.=.[ ` B G ~ ~ c.c.c.n.n.A r r A A A R R _ 3.3.2._ _ t.VXBXBXNXhX5.j B r 4 4.mX7.8.yXX.h.mX6X4.P A P t p : . X o $ % q q ",
"&.&.&.&.&.,.>.>.S.F.(._./.{.I.v.v.v.v.v.c.c.n.T.R.A r r A A A A R _ _ _ R R r.CXBXBXZX|.C B B 7 O.uXmXp.0 7.y j.wXj.#X$X7.t p p @ . X % % % q w ",
">.<.>.S.S.S.F.F.(.(._.`.{.I.m.v.z.v.v.v.b.n.n.Y.{.{ r r r r r A A R R R A A 5XZXNXBXaXT B Z j A 6XmXhX$X> - - 6.j.j.5XyXa.P e.6.: o : $ $ $ * o ",
",.,.S.F.F.F.F.F.G._.'.[.Y.N.m.z.z.z.v.v.b.n.b./.XXI.6 > r r r A A A r A r 4.BXBXMXZX|.V Z B B s.mXsXsXh.> * : t $XyXQ.r.X.> 8.a.6.t 6.: < - . + ",
",.>.S.Z.S.D.D._.,X3XlXY.B.m.m.v.c.c.c.c.n.b.Y.`.XXI.8 , 5 5 r r r r r r A qXZXMXMXNXr.V C l 5.sXsXsX$Xt - - - % 7.8XD.*.^ > O.|.=X7.9.L h 6 . . ",
"S.S.D.G.].,X1X1X3XcX/.N.B.m.m.B.b.c.c.n.b.Y.`.kXXXm.< , h > 5 r r r r r 5XZXMXMXMXNXt.V H 5.uXhXsXyXX.$ > - = % | Q.Z.*.$.^ n.s.tXtXe.2 z j $ X ",
",X1X,X1X4XcX3X3XxXkXY.N.m.m.m.v.v.c.n.b.Y./.kXkX~.U 1 1 h r 5 r r r O.5XZXMXNXMXmXmX8X|.5XaXhXaXsX$Xy X.y * * - G &.>.S.&.v.Q a.rXh.3 , c z * * ",
"4X4X4X,XF.,X1X3XzX/.Y.N.B.v.v.v.v.b.b.V./.kXkX/./ 6 1 1 x B > > 5 d.CXBXMXMXMXmXMXmXmXmXmXhXaXaXaX6Xh.7XX.% ; z $.,.>.Z.D.H.l r.7X| & b m I = * ",
"F.F.,X,X1X3XxXbX[.V.N.N.N.B.m.m.b.b.V./.kXkX/.` j 1 b 1 x 8 o o o 0 f.BXMXMXmXMXmXhXhXsXaXaXaXaXpXpXyXyXa.w q I $.>.>.>.I.) j %.q.3 3 n  .I - = ",
"].1X3XxXFXGXHXzX/.A.N.B.N.N.N.B.B.N./.kXlX/.~ l 1 2 f f x 3 o * o o X q.BXMXmXmXhXhXsXsXaXaXaXpXyXyXeXeX7Xq... .*.>.Z.M.J.D V G Z 3 b m  .L 7 h ",
"FXFXxXxXFXGXcX/.^.A.N.N.N.~.Y.N.V./.kXlX_.~ h h f 2 f f x < o * o $ * $ d.NXhXhXhXsXsXaXaXaXpXyXyXeXeXeXeX7X-X4.( >.>.b.n.V V G z , c  .$.z f g ",
"xXxXxXGXHXxX[._.^.A.N.N.A.~.N.V./.kXcX_.^ h 2 1 f f g k S = o * $ o * $ t hXmXhXhXsXaXaXaXpXyXyXeXeXeXeX7X7X6Xo.f >.D.J.` V j G c , c  .I , f E ",
"xXxXFXHXGXkX'.'._.A.A.A.A.N.V._.lXlX_.^ h 2 1 1 g f g k D : $ $ * $ $ * - 5XmXsXsXaXaXaXpXyXyXrXeXeX6X$X7X7Xr.l X.o.B.J.[ V h G 2 & g x h & F F ",
"cXcXxXbXzX[.<X<X'.^.A.A.N.V._.lXcX_.! 1 1 2 1 f g g k x Z | $ * * * $ * $ d.mXaXaXaXaXpXyXyXrXeXeXeXa.o.-X6X-.B @X!.c.I.` l 6 h , , 1 f % l F j ",
"cXxXGXcXkX2X2X<X'._.~.N.V.^.vXlX_.F P i.z 1 f g f k x l 4 f.t o * * * * $ p.mXaXaXaXpXyXyXrXeXeX7XeXe.f q.5X^ O.-XI.c.n.) j 2 2 = = , % , D j * ",
"GXHXGXzX2X2X<X'._.^.A.~.^.'.<X^.W 7 - qXmX#.1 x v x l 4 = ).:Xo * * * * $ f.mXaXaXpXpXyXyXrXeXeXeX7Xt.G T s.=.e.h.v.m.n.Q j 2 | p % $ % k Z p u ",
"GXGXcX2X<X<X'.]._.~.~.^.'.].A.W 7 - X q.ZX| $ < 8 z 6 - , r.NXX.$ - * * $ d.mXpXpXpXyXyXrXeX7X5X).Q.M.x.~ =.=.e.t.v.[ v.W 7 - X.+.$ * 2 j : 0 p ",
"GXbXzX<X'.`.]._.^.~.`.<X'.N.J 7 - = $ p d.$ = * * * - < , r.NX#X$ * * $ t uXsXpXpXpXyXrXeXeX7XQ.C.*.Z./ ~ / ~ -.5./ m.[ Q 7 8 t 0 > l ! -   o y ",
"bXzXkX<X'._.^.^.^.`.kX<XA.W 7 - - = * * - * = * = = - < , r.NXmX| $ : X p.mXpXpXpXyXyXrXrXrX7Xt.! ( ^ ( F F F G / v.[ [ Q 5 8 t - 7 E / ( o o @ ",
"zXlX<X'._.^.^.^.`.kXvX^.W 7 < - - = * * * = = = = - - < 6 o.p.6X#X* $ @.sXpXpXpXyXyXiXrX!.B.M./ ! l 6 < 4 4 4 < G / [ ` ! < $ = , k x $.Z.I 0 ^ ",
"zXlX<X]._.^.`.`.<X<XG.! 6 < - - - = $ $ * = = = - - < < 7 l , w q.#Xd.uXaXpXpXpXyXrX6XI.z.c.b.~.~.V.v.S 6 4 4 - h / [ [ J 1 h j 6 k x $.>.M.~./.",
"lX2X<X_._.'.<X<X'.A.W 7 < - - - - = $ * = = = - < < 4 < 7 j < 2 3 :.pXsXpXpXpXyXrXiX6Xs.5.Y H J Q ! ) ) ! J V Z @.^ [ ` S f S 6 x k k *.~.~./.[.",
"lX<X'.`.'.lXlX'.N.W 7 < - < < - - = $ $ = - - < < < 6 4 7 j < 3 w q 8.pXpXpXyXrXyX6Xh.h.h.$Xp.X.7 6 j V S F W K 6.| / ) t z c c k k ^ Y.Y./.{.J.",
"<X'.`.'.lXlX<XN.F 6 < - < < < - = = $ t > - < < < 6 6 4 7 6 < q c c c #XpXyXyXyXt.H l l V T h.wXj.4.P B j j V S P X.U J P Y ) ' F ( Y.T.Y.T.H.H ",
"'.'.'.kXlX'.Q.-.6 < < < < < - - = = X d.:.% < < < 2 6 6 7 3 q w c c 2 q.pXrXrXrXO.2 j j V l S a.tX;X|.%.P P 7 h U 5.5.5.) ' ' H.H.J././.R.H.H C ",
"'.<X<X<X].M.).0., < < < < - - - - = * $X1.< 4 < < < 6 6 7 q q w b b b 8.pXrXrXrX0.h j j V C S T -X6X(.*.e.j.0.O.j { o.o.K D D D H ) n.I.' H C C ",
"<X<X<XG.=.J !.5.= < < < - < - - - % p #Xn i : 4 4 < 6 6 7 3 q w w w b 8.pXrXrXrX$XA j j j V S U &X).D.%.r L P P < < D U Y F D D D C C C V Z C C ",
"<X].D./ F D F G < < < < < < - - = $ 8.i.n e # q - - 4 7 8 q q q q w 3 8.pXrXrXtXrXh.T j h l V V s.(.D.I % l ! x l k f J ) H V D D C V B Z Z Z Z ",
"_.M.! D D D F G < - < 4 - - - = = $ 7.<.e # : ; * ; = 4 4 3 q q q w q p.pXtXrXtXtXrX-X0.P 7 h l -.F.*.6 = H.c.~ ! ( E N ( G V V V V B B Z L Z B ",
"=.W D D F F J D 6 - < < < - - = = $ X.1.# + o * ; ; = = - ; q q w n n $XrXtXtXtXtXwXwXwX=Xa.#.B U <.I < ' H.c.~ ~ ~ ~ / ~ E E l j j j 7 L L B j ",
"W F F F F F H F 7 < - < < - = - % p :Xe O o $ * = = = = ; ; q q w q :.rXrXtXtXtXwXwX7X*X;XwX;Xj.O.L z 7 R.R.J.n.n.c.c.c.c.~ ~ ~ j 7 7 5 r Z 7 4 ",
"F J F F F F F H j < - < - = - % t @.a # o $ * * = = = = ; ; q q c w #XrXtXtXtXwXwXwXwX;X;X*X#X#X$X4.B - < B Z ) ' H.H.H.n.' W F S 7 z L 5 r 4 $ ",
"F F F F F F H H Z p - - = % = @.rXd.e @ * * * * = ; ; ; ; q q w 3 8.rXtXtXtXwX7XwX$X0.#.#.e.f.q.1.#.B p p % r y r r B B B 7 5 8 5 8 8 w w r 4 ; ",
"F F F F J J J S e.5X8 * > @.#XdXuXa # * * * * * * ; ; ; ; q q & +.wXtXtXtXwX7XtXh.L 1 1 1 1 L e.a.8.p s j.9.+.P 1 Z Z 8 r r r r r t t 4 L r r 0 ",
"C F F F J J J F -.-.L b 8.DXdXpX:.@ # * $ * * * = ; = ; ; ; ; :.wXrXtXtXwXwXwXh.Z & z c c z 1 2 6.&X&Xu.:.y.| 2 f S z c - * - - 4 4 t 8 7 5 > # ",
"V D F F F J J H I I &.,.:.rXdXi.0 i +.* * * * = = ; ; & & i p.rXtXwXwXwXwXwXe.j 3 v $.%.I j 2 , < 7.e.@.p ;.L f k 8 0 > . . u u % = - $ o * @ @ ",
"B C F F F J J D z n  . .} tXd.u #X0.p.* * * $ * ; ; % q y.wXrXtXwXwXwXwX;X;Xw.m $.I l 6 < 8 p :.6.X.5 X.@X9.k x X.0 @ O . X u.g.u   u a X   d u.",
"7 B D F J J J D 2 b z g #.p.e %X6X0.%X- < 2 8 8 3 q :.#XrXtXwXwXwXwXwX;X*X;X$Xo.B 5 t X.7.j.&X6.9 $ 2 X.6.C S 7 s 0 u # + . 6.@Xd X ;.@Xy s +X+X",
"6 j V D J J D U #., 2 6 :.s y.DXh.q.y., 2 2 g v v I s.tXtXwXwXwXwXwX;X*X*X*X=X@Xj.j.@X=X=X=X9.X $ , h b 3 6 < X 0 l.s s 0 O e a u # ;.y.d u u.+X",
"< 6 V D H H V t P 7 t | e 8.pXiX5XU w 2 2 1 h h c c c -.#XtX;X;X;X;X*X*X=X=X=X*X*X=X=X&X@X@Xt % ; 3 c n w o X X u g.g.u.u   @ u ;.l.u s a e e u ",
"< 6 B C F D e.wX#X@.0 9 ;.iXtXiXe.D L 2 2 2 h z m  .v c  .f.;X;X;X*X*X=X=X=X=X=X&X&X&X@X=Xu.; q q n n M n : $ $ 9 u.g.u       . @ u d +X+Xg.a . ",
"< 4 7 j l Z #X6Xs.0.0 # %XiXtXwX| l V l f f h c  . .m &. .v q.;X*X*X=X=X=X=X=X&X&X&X@X@X&X8.q e w n M M } ;.9 % 9 9.;.  . . . o o X o 6.+Xu.e o "
};
