/* XPM */
static char *_88b9410171b456d8c5ebfd14393a7cf9gS25NyEBHvkQan7[] = {
/* columns rows colors chars-per-pixel */
"72 72 253 2 ",
"   c #120B0B",
".  c #18140D",
"X  c #191514",
"o  c #2A0909",
"O  c #28150C",
"+  c #3C160C",
"@  c #271916",
"#  c #2B1D1B",
"$  c #381A18",
"%  c #2D2216",
"&  c #3B2419",
"*  c #2A1D2B",
"=  c #2B2624",
"-  c #382724",
";  c #451B16",
":  c #531811",
">  c #6C140F",
",  c #751B1A",
"<  c #58260C",
"1  c #49261A",
"2  c #572F16",
"3  c #58281A",
"4  c #7A2905",
"5  c #783306",
"6  c #682718",
"7  c #772818",
"8  c #693213",
"9  c #763617",
"0  c #621D24",
"q  c #482A24",
"w  c #572A25",
"e  c #483328",
"r  c #593627",
"t  c #512D32",
"y  c #563B36",
"u  c #682A24",
"i  c #772727",
"p  c #673829",
"a  c #763827",
"s  c #6B3836",
"d  c #773837",
"f  c #75431C",
"g  c #5D402C",
"h  c #594237",
"j  c #72452B",
"k  c #684438",
"l  c #764635",
"z  c #785339",
"x  c #345467",
"c  c #554843",
"v  c #75504C",
"b  c #785548",
"n  c #786159",
"m  c #861814",
"M  c #882A06",
"N  c #90330F",
"B  c #863917",
"V  c #A33A0D",
"C  c #891927",
"Z  c #941B2C",
"A  c #A01C33",
"S  c #852A27",
"D  c #892F2B",
"F  c #982636",
"G  c #873A37",
"H  c #9A3336",
"J  c #A22B3C",
"K  c #A73539",
"L  c #954B0D",
"P  c #88461C",
"I  c #964817",
"U  c #AA4F16",
"Y  c #884929",
"T  c #904D30",
"R  c #895437",
"E  c #955937",
"W  c #A5572A",
"Q  c #AB532D",
"!  c #966236",
"~  c #A66337",
"^  c #9B3B44",
"/  c #A73848",
"(  c #AC394D",
")  c #894A46",
"_  c #974849",
"`  c #89564A",
"'  c #9A5248",
"]  c #855A57",
"[  c #965A58",
"{  c #A84746",
"}  c #AF534E",
"|  c #AB4454",
" . c #AB4657",
".. c #AE4B5D",
"X. c #B34656",
"o. c #B24B5D",
"O. c #A45858",
"+. c #976846",
"@. c #8A6751",
"#. c #99655C",
"$. c #9C7457",
"%. c #B56848",
"&. c #A6704D",
"*. c #A4655A",
"=. c #B24D61",
"-. c #AF5262",
";. c #B35364",
":. c #B75767",
">. c #B45C6B",
",. c #BA5B6C",
"<. c #B95C6D",
"1. c #8C6A68",
"2. c #996865",
"3. c #8E7368",
"4. c #98746B",
"5. c #8E7675",
"6. c #9B7875",
"7. c #A66A68",
"8. c #BA656A",
"9. c #A67969",
"0. c #B77868",
"q. c #B76472",
"w. c #BB6473",
"e. c #BA6976",
"r. c #BD6B7A",
"t. c #A67978",
"y. c #BA747B",
"u. c #C47052",
"i. c #C25B63",
"p. c #C47367",
"a. c #C36876",
"s. c #C26D7D",
"d. c #C9737A",
"f. c #98857C",
"g. c #AE8379",
"h. c #CE8474",
"j. c #AE7E81",
"k. c #BB7782",
"l. c #C36F81",
"z. c #C57385",
"x. c #C97585",
"c. c #C67A86",
"v. c #C67689",
"b. c #C97789",
"n. c #C6798B",
"m. c #CA7B8D",
"M. c #D37C8C",
"N. c #CC7E91",
"B. c #7B8FA9",
"V. c #978688",
"C. c #918C8D",
"Z. c #A88887",
"A. c #B58989",
"S. c #B2928F",
"D. c #A98E92",
"F. c #AB9899",
"G. c #B79799",
"H. c #B6A39C",
"J. c #A59EA1",
"K. c #B79DA5",
"L. c #ADA4AA",
"P. c #B8A5AA",
"I. c #B9ABB4",
"U. c #BCB3BC",
"Y. c #CB828C",
"T. c #D88689",
"R. c #CD8293",
"E. c #CF8799",
"W. c #D28395",
"Q. c #D5869A",
"!. c #D58A9B",
"~. c #DB889A",
"^. c #DA8A9D",
"/. c #C39899",
"(. c #D39591",
"). c #E38B8F",
"_. c #E38B99",
"`. c #DAA091",
"'. c #DB8EA2",
"]. c #DB8FA7",
"[. c #CE9CAB",
"{. c #DE91A5",
"}. c #DB99A5",
"|. c #DE93A9",
" X c #E192A6",
".X c #EB93A5",
"XX c #E395AA",
"oX c #E599AE",
"OX c #E898AA",
"+X c #E59AB2",
"@X c #E799B5",
"#X c #EA9BB5",
"$X c #EC9DBA",
"%X c #F19EBB",
"&X c #C6A6AC",
"*X c #C5ACB6",
"=X c #D6AAB0",
"-X c #C4B3BB",
";X c #ECA9B0",
":X c #E9A7B9",
">X c #EDA2BE",
",X c #F1A2BE",
"<X c #F2A8B8",
"1X c #BCBBC9",
"2X c #C6B8C5",
"3X c #CBBBCB",
"4X c #D7B7C8",
"5X c #D0BBD1",
"6X c #EDA6C3",
"7X c #E4ADC5",
"8X c #ECABC5",
"9X c #EEAECB",
"0X c #F2A3C2",
"qX c #F1A9C7",
"wX c #F1A7CE",
"eX c #F1ADCB",
"rX c #E3B6CD",
"tX c #EFB1CE",
"yX c #F2B1C7",
"uX c #F1B0CE",
"iX c #F1B1CE",
"pX c #F2AFD3",
"aX c #EFB3D3",
"sX c #EDBBD9",
"dX c #F0B2D2",
"fX c #F1B4D2",
"gX c #F2B4D5",
"hX c #F1B8D6",
"jX c #F1B5D9",
"kX c #F1BDDD",
"lX c #BDC3D7",
"zX c #C8C2CE",
"xX c #CBC4D3",
"cX c #CBC7D9",
"vX c #D2C5D1",
"bX c #D5C4D7",
"nX c #D3CADC",
"mX c #F0C2D9",
"MX c #D7CCE4",
"NX c #CBD0EE",
"BX c #D5D3EB",
"VX c #D8D4E8",
"CX c #D7D9F4",
"ZX c #DCDDFB",
"AX c #F0CBEE",
"SX c #E2DCF9",
"DX c #DDE2FD",
"FX c #DAE8FD",
"GX c #DAF0FD",
"HX c #E3E5FD",
"JX c #E3EBFD",
"KX c #E9EBFD",
"LX c #E5F7FD",
/* pixels */
"wXeXeXeXeXeXeXeXeXuXuXpXpXgXgXuXuXuXuXuX9XeXeXeXeXeXqXqXqX6X0X0X0X0X0X,X>X$X$X$X#X#X@X@X+X+XoXXX|.|.].{.].'.'.'.^.!.Q.R.W.R.N.m.m.c.v.b.v.x.l.s.",
"eXqXeX9XeXeXeXeXuXuXeXuXuXuXuXuXuXuXeXuXeXeXeXeXeXqXqXqXqX6X6X0X0X0X>X>X#X>X$X$X#X#X#X+XoXXX|.XX|.|.].'.'.'.^.^.Q.Q.Q.R.R.R.N.n.c.c.b.x.x.l.s.l.",
"eXqX9XeXeXeXeXeXuXuXpXaXaXdXdXuXtXuXuXuXuXeXeXeX9XqXqXqXqXqX6X6X6X6X0X>X>X>X$X$X#X$X#X+X+XoXXX|.XX].].'.'.^.^.^.~.Q.Q.W.R.R.N.m.n.n.v.v.z.l.l.s.",
"eX9X9XeXeXeXeXuXtXdXdXdXdXdXdXuXuXuXuXuXeXuXeXqXeX9XeXeXqX8XqX6X6X6X6X0X>X$X>X$X$X+X#X+X+XoX|.XXXXXX{.{.'.'.^.^.^.Q.W.W.R.R.N.n.m.n.b.v.z.l.l.s.",
"9XeXeXeXeXeXtXdXgXgXgXgXgXdXdXgXdXdXuXeX9XwX<X+X7X9X+XuXy.$X0X#X+X6X6X6X>X>X>X%X$X#X#X+X+XoXXXXX|. X X{.{.'.!.^.^.!.Q.Q.W.R.R.N.m.m.n.v.z.z.l.z.",
"9XeXeXuXuXuXuXdXgXgXgXgXgXdXdXgXdXdXuXuX9X:X> ; 3 a R Y T m [ >Xq.0X6X6X>X>X>X%X$X#X#X+X+XoXoXXX|. X X].{.'.^.^.^.^.^.Q.W.W.R.N.m.n.n.m.z.z.z.z.",
"9XeXeXuXdXuXuXdXgXgXgXgXgXgXgXgXgXfXaXtXpX#X6 $ 1 1 3 < ; : 7 D S 6X6X6X0X>X>X>X#XO.M.{.+XoXXXXX|. X X{.{.'.'.'.^.^.!.Q.Q.W.R.R.m.m.n.b.v.z.x.z.",
"9XeXeXuXtXuXdXgXgXgXgXgXgXgXgXgXgXgXdXtX9X'.7 & 3 3 # X . # O - w 0X6X6X0X>X>X*.D > %X.X.Xm.OXXXXX X X].]. X'.'.'.^.^.Q.Q.W.W.R.N.m.m.n.v.z.z.z.",
"eXeXeXuXdXdXdXgXgXgXgXgXgXgXgXgXgXgXdXdXdX;XY & & @ @ . X . . ; ; #X6X0X6X6X6X6 $ 7.Y E T ~ p.!.XX X{. X{.{.'.'.^.^.^.!.Q.W.R.N.N.N.m.n.z.v.v.x.",
"9XeXeXtXdXdXgXgXgXgXgXjXjXjXjXjXgXgXgXdXaX7Xh.9 @ - w s q @ ; & 1 p B 2.<X,XwX3 $ @ 1 p j < p l ' y._.{.{.{.'.'.'.'.^.Q.Q.Q.W.R.R.N.m.n.n.v.v.v.",
"eXeXeXaX9XdXgXgXgXjXjXjXjXjXjXjXjXgXgXgXgXXX*.Y @ O q u k & $ 2 a 6.3.n P < Y E p e @ O q p v k k g i {.{.{.{.'.'.^.^.^.Q.Q.W.R.R.N.N.c.n.c.v.x.",
"9XuXeXdXdXgXgXgXjXjXjXjXjXjXjXjXjXgXgXfXfX7XI a q @ & 2.u q p j 9 n 1XNXY j < 5 j z - e & e y e e & ^ {.{.{.{.'.'.'.^.^.!.Q.W.R.R.N.N.m.n.n.v.z.",
"9XeXuXaXdXgXgXgXjXjXjXjXjXjXjXjXgXjXgXgX:X<X(.u < + $ 1 1 b +.j < b lXGX$.R 5 p p r 1 - y - - e y = T. X X{.{.{.'.'.^.^.!.Q.W.W.R.R.N.m.c.n.v.x.",
"eXeXpXaXgXgXgXgXjXjXjXjXjXjXjXjXjXjXgXfXaX;X`.5 < % 6 1 z @.E l 2 n NXLX` +.5 y & $ h $ r e = X S x.{.XX X{.{.{.'.'.^.^.!.Q.Q.W.R.R.N.m.n.n.b.x.",
"uXuXpXdXgXgXgXgXjXjXjXjXjXjXjXjXjXjXgXuXuX=Xp.8 1 + 9 q j ` 9 2 w e NXFXz z 9.& $ X - q # & % # _ M..XXX X X{.{.'.'.^.^.!.~.Q.W.R.R.R.N.n.n.b.x.",
"uXuXuXdXtXdXgXgXgXjXjXjXjXjXjXaXjXjXgXgXaX:X&.M p &.q & b 9.p $ 2 = 1XCXh f z c X X - y q n & d >..XXXXX X X X{.'.'.^.^.^.Q.Q.W.R.R.R.N.m.n.v.x.",
"dXeXuXdXdXdXgXgXjXjXjXjXjXjXhXjXjXjXjXgXaX(.0.P &.R # g 9.R * n < & CX5.& 1 X # . X % b k 1 u 6 ~. XoXXXXX X X{.{.'.^.^.^.~.Q.W.R.R.N.N.n.n.n.z.",
"9XeXuXdXdXdXgXgXjXjXaXjXjXjXhXhXjXjXjXgXaX;X0.L &.e X < e 1Xx 1.k C.FXF.e - X X ; . @ < 3 w u 6 T.oXXXXXXX X X{.{.'.'.^.^.~.Q.W.R.R.N.m.n.n.b.z.",
"eXeXeXdXdXdXfXgXjXjXjXjXjXjXjXaXjXjXjXgXdX7X*.%.5 @ X z l @.] +.n LXDXC.h #   q e # . k w : G { m.oXXXXXXX X X{.{.'.'.^.^.^.Q.Q.R.R.N.M.m.n.n.v.",
"9XuXuXuXuXdXfXgXjXjXjXaXjXjXjXjXaXjXjXgXfX:XT.W 3 . p ! 3.` $.z LXLXDX1Xn h @ 1 $ # . w ; w .X#Xc.oXXXXXXXXX X{.{.'.'.'.^.~.~.W.R.R.R.N.m.n.b.v.",
"9XeXeXtXuXuXfXfXgXjXjXjXjXjXjXjXjXjXjXgXfX}.0.~ 1 & f $.3.r 3.GXLXLXFXlXV.= & 1 . O   q w s 7.|.|.oXXXXXXX X X{.{.'. X'.^.^.!.W.W.R.R.N.m.n.n.v.",
"eXeXeXuXdXdXdXfXgXgXjXjXjXjXjXjXjXjXjXgXaX:X;Xp + j R E j j B.LXLXDXNXNXC.% # @ 1 &   q 6 i _._.+XoXXXXXXX X X X{.{. X'.^.~.~.W.W.R.R.N.m.n.c.v.",
"eXeXeXuXuXuXdXdXgXgXjXjXjXjXjXjXjXjXfXgXdX}.B r j @.Y 9 r r LXLX2 5.1.w C.n = = 1 1 X X : _ #X@XXXoXoXXXXXXXXX X{.{.'.'.^.^.Q.W.W.R.R.N.n.n.b.v.",
"eXeXuXuXuXuXdXdXgXgXjXjXjXjXjXjXjXjXfXgXtX}.a ; p R 5 8 2 y GXGXb k 2 w w 1.& q ; $ @ = 1 8.k.#XoXoXoXoXXX|.XX X{.'. X'.^.^.^.Q.W.R.R.M.m.n.c.v.",
"9XuXuXuXtXuXuXdXdXgXjXjXgXgXgXgXgXfXfXfXtXT.7 3 q j j y r r JXLX1.v p   v [ $ - $ & q e - , W.#X+XoXXXXXXXXXXX X{.'.'.^.^.^.^.Q.W.R.R.M.m.n.b.v.",
"9XuXuXuXuXuXdXdXdXdXdXgXfXfXfXfXfXfXfXuX<XN ` r e e e + r b LXDXF.< 8 w ] 2.y # @ $ q - - 3 _.oX+XoXoXOXXXXXXX X{.'.'.'.^.^.Q.Q.W.R.R.N.n.n.c.v.",
"uXeXuXuXuXuXdXdXdXdXfXfXfXfXfXjXfXfXfX7X:X<X` b 1 & e f I.V.DXnXj.1.1.` 2.7.o o . @ # = = t M.#XoXoXoXXXXXXX|. X{.'.'.'.^.^.Q.Q.W.R.R.R.m.m.n.v.",
"uXeXeXuXuXuXdXdXdXdXfXfXfXfXfXfXfXfXfXtXaXY.mX3.e - b nXDXLXnXK.G.g.j.A.k.1.e . = . # # - w H ~.oXoXoXOXXXXX X X{.{.'.'.^.~.!.Q.Q.R.R.N.m.n.n.v.",
"9XeXeXeXuXuXuXdXdXdXfXfXfXfXfXfXfXfXdXgXuXtXH.1.r h f.CXLXDXDXI.P.f.Z.3.1.k $ -   = @ = q p _ T.XXoXoXXXXXXX X{.{.'.^.^.^.^.~.W.W.R.R.N.m.n.n.v.",
"eXeXeXeXeXuXuXuXdXdXuXfXfXfXfXfXgXfXdXgXjXaXMXU.k k L.JXFXJXCX2X2XF.D.3.3.3.z b X # = @ y v _ y.#XoXXXXXXXXX X X{.'.^.^.^.~.Q.W.W.R.R.N.m.n.v.v.",
"9XeXeXuXeXuXuXuXuXuXdXdXdXfXfXfXfXfXdXdXfXrXJXDX5.3.I.DXzXLXMXBXBXU.I.D.4.f.3.3.& @ # t d ) O._.oXoXoXXXXXXX X{.{.'.^.^.^.~.Q.W.R.R.N.R.m.n.v.v.",
"eXeXeXuXeXuXuXuXuXuXuXdXdXdXdXfXfXfXfXdXfXAXDXCXL.L.U.DXDXFXVXDXcXzX2XF.D.D.f.V.p # ; v [ ) _ ~.$XoXoXXXXXXX X{.{.'.'.^.^.~.Q.Q.R.R.N.N.m.n.v.x.",
"eXeXeXuXuXuXuXuXuXuXuXfXdXdXdXdXfXfXdXdXhXVXHXDXBXcXnXDXCXFXVXDXVX2XzXI.I.P.F.F.j 3 > d _ [ _ Y.oXoXoXXXXXXX X{.{.'.'.^.^.Q.Q.W.R.R.N.m.m.n.v.x.",
"eXeXeXeXuXuXuXuXuXuXuXtXuXdXdXdXdXdXuXtXtXSXJXLXZXMXBXZXDXFXBXVXxXnXxX-X2XU.I.J.R R ) ' [ _ d 7.XXoXXXXXXXXX X{.'.'.^.^.!.Q.W.W.R.R.R.m.m.n.v.x.",
"9XeXeXuXeXuXuXuXuXuXdXtXuXuXdXdXdXdXuXdX7XF.JXJXKXCXBXSXZXZXCXcXnXcXnXzXcX1XU.F.4.#.9.[ [ ) i 8.|.oXoXXXXX{. X{.'.^.^.^.~.Q.W.R.R.R.N.m.n.n.v.v.",
"eXeXeXuXeXeXeXuXuXuXdXtXuXuXdXdXaXuXuXdX7XbXZXJXJXHXVXcX5XMXnX3XxXxXxXxXzXcXU.Z.g.t.7.[ ` d d O.|.oXXXXXXXXX{.{.'.^.^.^.~.Q.W.R.R.R.N.n.n.v.v.x.",
"eX9XeXeXuXuXuXuXuXuXuXuXuXdXdXdXdXdXdXuX=X4X5XHXJXJXZXnXnXxXMX2X2XbX3XzXxX2XP.A.A.4.*.[ ) d i O.XXOXXXXXXX X{.{.'.^.^.^.!.Q.W.R.R.m.N.n.n.v.v.x.",
"9X9X9XeXuXuXuXuXuXuXuXuXuXuXdXdXdXdXuXuX8X/.P.DXHXJXDXVXbX2X3X-X-X-XI.vXI.*XG.Z.t.#.#.[ ) v d { XXXXXXXX X{.{.'.^.'.^.!.!.Q.W.R.N.m.m.n.v.v.v.x.",
"9XeX9XeXeXuXuXuXtXuXuXuXuXdXdXdXdXuXuXuXtX}.bXnXJXDXHXZXMXbX3XvX*XP.P.P.I.P.S.6.2.#.#.` ` ) ) ~.oXXXXXXX XXX'.'.'.^.^.~.!.W.W.R.m.m.m.m.b.v.z.x.",
"eXeXeXeXeXuXuXuXuXuXtXtXtXdXdXdXtXuXtXuXtX;XA.D.KXJXHXDXBXnXnX3X2X*X-XI.K.G.D.2.t.2.[ 2.2.7 S .XXXXXXXXX X{.'.'.^.^.~.!.W.W.R.W.m.m.n.b.v.v.z.z.",
"qX8X8XeXeXeXuXeXeXeXuXtXtXtXtXtXdXtXtXuXtX<X0.1.CXKXJXHXSXCXVXnXnX3X-X-XI.F.S.4.4.4.#.2.4., S ~.XXXXXX X X{.^.'.^.~.!.Q.W.R.W.W.m.m.n.v.z.z.z.l.",
"qXqXqX9XuXeXuXuXuXuXuXuXuXuXuXuXuXuXuXuXdX:XU T cXKXJXHXDXHXSXBXBXxXzXU.I.P.G.6.t.6.4.2.2.i H T. XXXXX X{. X'.^.^.^.~.W.W.R.N.R.m.m.n.v.z.z.z.s.",
"6XqXqXqX9X9XeXuXuXuXuXuXuXuXuXtXuXuXuXuX9X<Xu.I 3XHXJXKXJXJXHXDXDXBXnX3XI.K.K.Z.Z.Z.t.7.2.u } ). X X X{.'.'.^.~.~.~.W.W.R.W.R.m.m.n.b.v.z.z.l.s.",
"qX6X6XqXqXqX9XeXeX9XeXeXuXuXuXuXuXuXuXeXaX>XT.~ U.HXZXKXKXJXDXDXDXBXcXcXI.P.F.D.D.Z.Z.2.2., a._.XX X{.{.'.'.^.~.!.W.W.R.R.R.m.m.c.b.b.x.l.l.s.s.",
"0X0X6X6XqXqXqXeXqX9XeXeXuXuXeXeXeXeXeXeXeX8X XU 2XSXHXZXZXKXZXKXDXBXMXMX2X*XK.D.K.Z.A.2.[ , x. X.X X{.^.^.^.~.!.Q.W.W.W.R.m.m.n.b.v.v.x.z.r.r.s.",
"0X0X0X6XqX6XqXqXeXeXeXeXeXeXeX9XeXeXqXeXqX6X}.%.D.CXZXSXHXSXHXJXDXZXMX3X2XK.D.D.G.S.Z.7.D > } ^.{. X'.^.^.~.Q.W.W.W.W.m.m.m.m.c.v.x.z.s.s.s.r.s.",
",X0X0X0X0X0X0X6X6XqXqXqXqXqXqXqXqXqXqX0X0X8X XN Y 3XBXZXSXCXCXZXZXMX3X3X*XP.G.Z.S.t.t._ , > ( Q.^.^.~.!.Q.Q.W.W.W.R.W.m.m.c.c.v.x.x.s.s.r.r.r.r.",
",X,X,X0X0X0X0X0X0X6X6XqXqXqXqXqXqX6X0X0X0X<XQ B W =XI.3XMXMX3XnXBXnX3XU.K.S.A.A.j.t.[ i , 7 X.d.~.^.~.Q.W.W.W.W.W.m.m.m.c.v.x.x.z.s.s.s.r.r.e.r.",
"$X$X$X,X0X0X,X0X0X0X0X0X0X0X0X0X0X0X0X0X>XT.4 3 ~ V [ &XF.*X4X5X3X5X2X4XG.A.y.7.7.T ) i , , ; K d.^.Q.W.W.W.W.N.m.m.c.b.x.x.z.s.s.s.r.r.e.r.r.a.",
"$X$X$X$X$X$X$X%X,X,X,X,X0X0X0X0X0X0X0X,X#XT.7 P M U T [ #.4.G.*X4X4X*X&XG.t.7.O.' d 6 u i 6 $ S ,.W.W.M.M.N.m.c.c.x.x.x.x.l.s.s.r.s.r.r.r.r.r.w.",
"@X#X#X#X#X$X#X$X$X$X$X$X$X%X%X$X>X>X$X$XoXu.4 B +.%.M B ` 2.g.=X-X=XK.G./.g.7.E [ : : > S , $ 0 d.M.m.m.c.m.c.c.v.x.z.s.s.s.r.r.e.r.r.e.w.w.,.,.",
"+X#X#X#X#X#X#X$X$X$X$X$X$X$X$X$X$X$X$X@XT.V M N 9.g.V M M B A.=X*X*X&X/.A.y.*.' O.D D { d 6 + $ H x.x.b.x.v.x.z.x.l.s.s.r.r.r.r.r.r.r.w.w.w.w.,.",
"#XoXoXoX+X+X#X#X#X#X#X#X$XXX^.T.~.OXoX+Xd.V N +.9.G.h.Q I E t.*X-X*X&XG.A.t.*.' *.*.O.O.G 6 + O > i.d.x.z.l.s.s.s.s.s.r.r.r.r.r.w.w.w.w.w.<.,.,.",
"+XoXoXoX+X+X+X+X+X+X#X#XXX).d.8.8.} { T.T.M M R $.S.I.bX&XH.A.-X2X-X&X/.S.t.7.' 7.7.O._ G 7 w ; G { a.s.s.s.s.s.r.r.r.r.r.r.r.w.w.w.<.,.,.,.,.,.",
"#XoXoXoX+X+X+X+X+X+XoXT.} I B N N M N M M Q M E 9.D.*X5XZXcXP.*X2X2X&XG.G.j.#.O.2.7.O._ G G 3 $ K i.a.a.a.e.a.a.r.r.w.w.w.w.,.<.,.,.,.,.,.>.:.,.",
"#X+X@X+X+X+X+X+XoXT.W I I B B B M B 8 8 B V M 7 g.K.bXbXSXCXP.3X*X-X&XG.S.t.#.7.9.7.O.G ) u 3 $ m K i.w.w.w.w.w.w.w.,.,.,.,.,.,.,.,.:.:.:.:.:.:.",
"@X@X@X@X@X@X$XoXp.&.~ E P 9 B 9 9 < 8 8 7 N M 4 /.P.2XMXSXCXzXG.*X*X&XS.Z.A.2.t.t.[ O.T S w ; $ C X.:.:.,.,.,.,.,.,.,.,.,.:.:.:.:.:.:.:.:.:.;.;.",
"$X$X$X%X@X>X:X/.g.9.E P I B a B 2 5 B 9 8 9 B 7 2.Z.3XnXVXHXMXG.K.K.G.A.2.) 9.A.6.[ _ G T w $ $ C / X.o.o.=.=.;.;.;.;.;.;.;.;.;.;.;.;.;.;.;.;.;.",
">X$X$X#X7X4X3X*XG.+.$.! Y P 9 8 5 5 a 2 a N M 7 a G.K.bXSXDXZXG.t.] A.A.7.) g.D.6.2.G G d q $ ; , J / / ( ( ( X.X.X.X.o.o.o.o.o.o.=.=.=.=.=.;.=.",
">X%X>X6X4XxX3X-XH.G.$.$.4 f p P P 9 9 P 9 B V 7 > 4.&XG.MXDXCX6.A.4.t.2.#.a G.G.j.[ G a s t O + , Z A J J / / ( ( ( | | X.X.o.o.o.....o.o.=.=.=.",
"6X>X8XrXbXbXvX2X-XF.f.! 9 Y P W 9 Y Y 5 N L N B P j #.] MXMX3XZ.) 2.4.[ R d K.P.Z.[ s 3 p - @ ; > C Z Z Z F J J / / / ( ( ( | X.| | ..........o.",
"6X6X8XrX5XvXbXbXI.G.&.P P E L Y T ~ P I W N Y N 4 p g.K.VXnXU.Z.` 2.[ Y 2.s P.P.Z.[ v q t . # ; > C Z Z Z Z F F J / / ( ( ( ( | | | | ......=...",
"6X6X8X9XrXbXbXvX&XS.&.~ ! &.I ~ ~ W W U U U N B 6 + ` #.VXSXnXF.] a u p a 3 P.I.D.#.q $ X - O ; 0 i C F Z Z F F H / / / ( ( | | | | ......=...=.",
"8XqX8XuXtXrXrX=X&X`.h.h.h.0.p.p.h.%.%.h.p.U W M 6 -XH.S.ZXHXSXP.` ] v u u w I.2XF.4.1 w r   $ ; 0 , Z Z F F H H / / ( ( | | | | ..........-.;.;.",
"8X8X9X9X9XuXuX8X8XyX:X:X:X:X<X:X:X8X:X:XOX).h.%.xXCXnXH.KXJXDXI.4.a l w 3 w *X2XI.3.3 p r s $ ; 0 C F F F / / / / ( | | | | ........-.;.;.-.-.;.",
"9X9X9X9X9XeXeX9X8X9X8X8X9X9X9X9X9X9X9X9X8X8X8X8XnXBXnXF.KXJXDXU.5.d d u 0 r 2XcX1XV.] p r l 0 i S F H / / ( | | | | ......-.-.;.-.-.;.;.;.;.;.;.",
"9XeXeXeX9X9XtXtXtX9XtXtXtXtXtX9X9X9XtXtXuXuXuXdX*XvX&X4.HXLXJX2XV.G 7 i i i xXnXcXI.3.t w d i F H / ( | ..o...-.;.-.;.>.;.:.>.>.>.>.>.>.>.>.>.>.",
"9XtXtXuXuXuXuXtXtXdXtXtXtXtXfXdXtXdXdXdXtXtXtXtX9XuX9X:XLXDXDX1XV.H H H K K bXBXCX1XC.S G H ^ | ....;.;.>.>.>.>.q.>.w.w.w.w.q.w.q.q.q.q.q.q.q.q.",
"dXuXdXuXdXdXdXfXfXfXgXdXfXfXfXfXfXfXfXfXfXfXdXdXdXuXuXAXDXBXnXNXF.K / o.:.8.nXnX1XU.lXC.^ | -.>.q.w.q.q.e.e.e.e.e.e.e.e.e.e.e.e.e.e.e.e.e.e.e.e.",
"gXfXfXfXfXfXfXfXfXfXfXgXgXgXgXgXgXgXhXhXgXhXgXgXfXfXaXDXnXP.P.U.I.K 8.d.c.Y.MXxXzXJ.J.V.| q.r.y.y.y.k.z.k.z.z.z.z.z.k.k.y.y.y.y.r.y.r.r.r.r.r.r.",
"jXgXgXjXaXjXaXjXhXhXjXhXhXhXhXhXhXhXhXhXhXhXhXhXhXhXkXCXZX2X2XD.F.;.^.oX:X:XcXbXNXI.lX` ^ z.Y.R.R.R.R.Y.R.Y.Y.m.m.n.n.n.n.n.c.n.k.k.k.k.k.k.k.k.",
"sXhXhXsXsXsXsXsXkXsXsXkXkXkXkXkXkXsXkXkXkXkXkXkXmXmXAXnXDXvXP.] 2.Y.uXtXtX9X[.) xX1XlX` / ].|.|.].|.'.'.!.!.!.!.E.E.E.R.R.R.R.R.m.n.n.n.n.n.n.z."
};
