/* XPM */
static char *_e4c938767a244f2fe85d5391a1dc5e0a3NGQRlRjbSsaHdC[] = {
/* columns rows colors chars-per-pixel */
"72 72 253 2 ",
"   c #4F1C0F",
".  c #481B13",
"X  c #571915",
"o  c #6F1A0D",
"O  c #641A18",
"+  c #771718",
"@  c #4C2212",
"#  c #582812",
"$  c #5A2814",
"%  c #672813",
"&  c #772816",
"*  c #6C3113",
"=  c #793A1B",
"-  c #7B1D22",
";  c #742F26",
":  c #7C4E2A",
">  c #89161B",
",  c #931B14",
"<  c #AE1A0E",
"1  c #993A0D",
"2  c #8F2C10",
"3  c #892718",
"4  c #8A3B17",
"5  c #973A17",
"6  c #AE3110",
"7  c #A53C1A",
"8  c #961B23",
"9  c #AB1A24",
"0  c #862325",
"q  c #972A2A",
"w  c #87372F",
"e  c #9B3227",
"r  c #8D2B35",
"t  c #8F2E38",
"y  c #912732",
"u  c #922B36",
"i  c #9B2D33",
"p  c #952C39",
"a  c #9A2D3A",
"s  c #9C313A",
"d  c #A4262C",
"f  c #B7242A",
"g  c #A73628",
"h  c #BC2834",
"j  c #AC3133",
"k  c #AB323A",
"l  c #B9363A",
"z  c #C73609",
"x  c #D03409",
"c  c #C61D24",
"v  c #C92837",
"b  c #D52939",
"n  c #D23033",
"m  c #EF323B",
"M  c #934416",
"N  c #A8480E",
"B  c #BA4D0C",
"V  c #A94317",
"C  c #B74A13",
"Z  c #BA5413",
"A  c #8A4723",
"S  c #964B25",
"D  c #945532",
"F  c #A64C26",
"G  c #AA572C",
"H  c #B45B2D",
"J  c #AE4936",
"K  c #AA5B34",
"L  c #B65C31",
"P  c #9D6A35",
"I  c #BC6334",
"U  c #B26A30",
"Y  c #B96739",
"T  c #D24B0C",
"R  c #C65B15",
"E  c #EF550A",
"W  c #D36B1A",
"Q  c #D56B19",
"!  c #F46813",
"~  c #FA7917",
"^  c #CE572C",
"/  c #E4432E",
"(  c #D66B26",
")  c #D97727",
"_  c #C66A39",
"`  c #CD7135",
"'  c #E47A27",
"]  c #EF762A",
"[  c #983941",
"{  c #A43443",
"}  c #AB3647",
"|  c #B53949",
" . c #B83D51",
".. c #DB2F42",
"X. c #C73A44",
"o. c #DA3543",
"O. c #E8374A",
"+. c #E63949",
"@. c #F53B45",
"#. c #954E49",
"$. c #AD4D4E",
"%. c #BC4255",
"&. c #996C48",
"*. c #AF734E",
"=. c #92696A",
"-. c #AD6F6D",
";. c #C54558",
":. c #D24A51",
">. c #E9434A",
",. c #F8424B",
"<. c #E74A55",
"1. c #F7495A",
"2. c #EE5652",
"3. c #F7545D",
"4. c #C97443",
"5. c #D67945",
"6. c #CF7251",
"7. c #ED6F51",
"8. c #CC4B64",
"9. c #D44D64",
"0. c #C95564",
"q. c #D75867",
"w. c #D4546C",
"e. c #DA5A73",
"r. c #F15466",
"t. c #F85667",
"y. c #F95B6D",
"u. c #F95E71",
"i. c #CC6B6E",
"p. c #DE6179",
"a. c #F8646B",
"s. c #EC726D",
"d. c #E3667A",
"f. c #F96273",
"g. c #F76A75",
"h. c #F96C7C",
"j. c #F8737B",
"k. c #FB8317",
"l. c #D38234",
"z. c #EA872B",
"x. c #F88B27",
"c. c #E78835",
"v. c #F39134",
"b. c #F89738",
"n. c #FBA239",
"m. c #B58451",
"M. c #B68F65",
"N. c #D88F4E",
"B. c #DB8855",
"V. c #E68949",
"C. c #E99946",
"Z. c #F89C44",
"A. c #E58A53",
"S. c #ED9257",
"D. c #F7A44B",
"F. c #EBA858",
"G. c #F7AA58",
"H. c #FAB056",
"J. c #FBB35C",
"K. c #D0956A",
"L. c #EA9A63",
"P. c #F4926C",
"I. c #D6A56D",
"U. c #F6A964",
"Y. c #FBB564",
"T. c #F9B868",
"R. c #EFAB73",
"E. c #F9BC74",
"W. c #FCC36C",
"Q. c #FCC374",
"!. c #FCC87A",
"~. c #AD7D80",
"^. c #E36781",
"/. c #E56C83",
"(. c #F76D81",
"). c #E87387",
"_. c #EA748A",
"`. c #EC798D",
"'. c #F97383",
"]. c #F97A85",
"[. c #F77988",
"{. c #EE7E92",
"}. c #AE9A90",
"|. c #D7918E",
" X c #F9848E",
".X c #F4958B",
"XX c #ED8395",
"oX c #F18395",
"OX c #F98996",
"+X c #F18699",
"@X c #F38B9C",
"#X c #F89399",
"$X c #FA959B",
"%X c #D3B08B",
"&X c #F4B48C",
"*X c #C89EA2",
"=X c #F58FA0",
"-X c #EB99A2",
";X c #F693A3",
":X c #FA95A4",
">X c #FA99A6",
",X c #F89AA7",
"<X c #FB9CAB",
"1X c #D6B3B1",
"2X c #FAA7A8",
"3X c #FCA1AE",
"4X c #FCB9A8",
"5X c #E6ADB3",
"6X c #FDA5B2",
"7X c #FEAAB6",
"8X c #FFADB9",
"9X c #FFB3BD",
"0X c #FCBABA",
"qX c #FCCC83",
"wX c #F9C887",
"eX c #FDD587",
"rX c #FDD38C",
"tX c #E9C595",
"yX c #F9CA97",
"uX c #FDD897",
"iX c #D9C3AA",
"pX c #F1CFAD",
"aX c #FBD9A7",
"sX c #FBC7B9",
"dX c #F9D9B6",
"fX c #FEE6A8",
"gX c #FDE3BC",
"hX c #E2B9C0",
"jX c #FFB6C2",
"kX c #FFBBC5",
"lX c #FFBDC9",
"zX c #E8CECA",
"xX c #FEC5C5",
"cX c #FFC3CD",
"vX c #FEC9CE",
"bX c #FDD7C9",
"nX c #FFC7D0",
"mX c #FFCBD3",
"MX c #FFD1D6",
"NX c #FFDAD6",
"BX c #FFD5D9",
"VX c #FFDADD",
"CX c #FDE9C6",
"ZX c #FDEAD7",
"AX c #FFE2DE",
"SX c #FEF1D3",
"DX c #FFDEE0",
"FX c #FFE2E3",
"GX c #FFE3E4",
"HX c #FFE5E5",
"JX c #FFE8E5",
"KX c #FFE8E9",
"LX c #FDF5E8",
/* pixels */
"KXKXHXHXHXHXHXHXHXGXGXFXFXFXFXFXDXDXDXDXDXDXVXVXVXVXVXVXVXVXVXBXBXBXBXBXBXBXBXMXMXMXMXMXMXmXmXmXmXmXmXmXmXnXnXnXnXvXvXvXcXcXcXcXcXcXcXcXlXlXlXlX",
"KXKXHXHXHXHXGXGXGXGXFXFXFXFXDXDXDXDXDXDXVXVXVXVXVXVXVXVXVXVXVXBXBXBXBXBXBXMXMXMXMXMXMXMXmXmXmXmXmXmXmXmXnXnXnXnXvXvXvXvXcXcXcXcXcXcXlXlXlXlXkXkX",
"KXHXHXHXHXHXGXGXGXFXFXFXFXFXDXDXDXDXDXVXVXVXVXVXVXVXVXVXVXBXVXVXBXBXBXBXBXMXMXMXMXMXmXmXmXmXmXmXmXmXmXmXnXnXnXvXvXvXvXcXcXcXcXcXcXlXlXlXlXkXkXkX",
"KXHXHXHXHXHXGXGXFXFXFXFXFXDXDXDXDXDXDXVXVXVXVXVXVXVXVXVXVXVXVXBXBXBXBXBXBXMXMXMXMXMXmXmXmXmXmXmXmXmXmXmXnXvXvXvXvXvXcXcXcXcXcXcXlXlXlXlXlXlXkXkX",
"KXKXHXHXHXHXGXFXFXFXFXFXFXDXDXDXDXDXDXVXVXVXVXVXVXVXVXVXBXBXBXBXBXBXBXBXBXMXMXMXMXMXMXmXmXmXmXmXmXmXmXmXnXvXnXvXvXvXcXcXcXcXcXcXcXlXlXlXlXlXkXkX",
"KXHXHXHXHXHXGXFXFXFXFXFXFXDXDXDXDXDXVXVXVXVXVXVXVXVXVXBXBXBXBXBXBXBXBXBXBXBXMXMXBXMXmXmXmXmXmXmXmXmXmXmXmXnXvXnXvXvXcXcXcXcXcXcXcXcXlXlXlXkXkXkX",
"KXHXHXHXHXHXFXFXFXFXFXFXDXDXDXDXDXDXVXVXVXVXVXVXVXVXVXBXBXBXBXBXBXBXBXBXBXMXMXMXMXMXmXMXmXmXmXmXmXmXmXmXmXnXvXvXvXnXvXcXcXcXcXcXcXcXlXlXlXlXkXkX",
"KXHXHXHXHXFXGXFXFXFXFXFXDXDXDXDXVXVXVXVXVXVXVXVXVXVXVXVXBXBXBXBXBXBXBXBXBXMXMXMXMXMXmXMXmXmXmXmXmXmXmXmXmXnXvXvXvXvXvXvXcXcXcXcXcXcXlXlXlXlXkXkX",
"KXHXHXHXGXGXFXFXFXFXFXFXDXDXDXDXDXVXVXVXVXVXVXVXVXVXVXVXBXBXBXBXBXBXBXBXBXBXMXMXMXMXMXmXmXmXmXmXmXmXmXmXmXmXnXnXvXvXcXcXcXcXcXcXcXlXlXlXlXlXkXkX",
"KXHXGXGXGXFXFXFXFXFXFXFXDXDXVXDXDXDXVXVXVXVXVXVXVXVXVXVXBXBXBXBXBXBXBXBXBXMXMXMXMXMXMXmXmXmXmXmXmXmXmXmXmXmXmXvXnXvXvXcXcXcXcXcXcXlXcXlXlXlXkXkX",
"HXHXHXGXGXGXFXFXFXFXFXDXDXDXDXDXVXVXVXVXVXVXVXVXVXVXBXBXBXBXBXBXBXBXBXBXBXMXMXMXMXMXMXmXmXmXmXmXmXmXmXmXmXmXmXnXnXvXcXvXcXcXcXcXcXlXlXlXlXlXkXkX",
"HXHXGXGXGXGXFXFXFXFXFXDXDXDXVXVXVXVXVXVXVXVXVXVXVXBXBXBXBXBXBXBXBXBXBXBXBXMXMXMXMXMXMXmXmXmXmXmXmXmXmXmXmXmXnXvXnXvXvXvXcXcXcXcXcXlXlXlXlXlXlXkX",
"HXHXGXGXFXFXFXFXFXFXFXDXDXDXVXVXVXVXVXVXVXVXVXVXVXVXVXBXBXBXBXBXBXBXBXBXBXBXMXMXMXMXMXMXmXmXmXmXmXmXmXmXmXvXnXvXvXvXvXvXcXcXcXcXcXcXlXlXlXlXlXkX",
"HXHXGXGXFXFXFXFXFXDXDXFXDXDXDXVXVXVXVXVXVXVXVXVXVXVXVXBXBXBXBXBXBXBXBXBXBXBXMXMXMXBXMXMXMXMXMXMXmXmXmXmXmXmXnXvXvXvXvXcXcXcXcXcXcXcXlXlXlXlXlXkX",
"HXGXGXFXFXFXFXFXFXDXFXFXDXDXDXDXFXDXFXFXVXVXVXVXVXVXVXBXBXBXBXBXBXBXBXBXBXBXBXBXBXBXBXBXBXMXMXMXMXmXmXmXvXmXnXnXvXcXcXcXcXcXcXlXcXcXlXlXlXlXlXkX",
"HXGXGXFXFXFXFXFXFXDXDXFXFXFXDXFXFXFXFXNXAXAXVXVXBXVXBXBXBXBXBXBXBXBXBXBXBXBXBXBXBXBXBXBXNXNXbXbXbXbXvXvXvXvXvXvXcXcXcXcXcXcXlXlXcXcXlXlXlXlXlXkX",
"HXGXGXFXFXFXFXFXFXFXFXFXFXFXGXGXZXCX&X_ %XyXwXyXaXdXbXBXBXBXMXMXMXMXMXBXBXBXBXBXBXNXNXbXdXuXqXrXuXQ.G.P.4X0XkXxXcXcXcXcXcXcXlXlXcXlXlXlXlXlXkXkX",
"HXGXGXFXFXFXFXFXFXFXFXGXGXGXAXxX4XyXR.Y *.L.L Y G.W.x..XxXvXmXmXmXmXMXMXBXBXBXBXNXNXxXOXs.G.H.fXqXQ.J.Q ^ A..X7X9XkXkXkXkXxXkXlXlXlXlXlXlXkXkXkX",
"HXGXFXFXFXFXFXFXFXGXGXKXJXSXvX#X3._ V.Y 4._ = $ V.D.~ E 7.2XkXxXvXmXmXMXBXNXNXNXCXbX7X].1./ G.fXQ.l.J.z.` U.G.S.$X7X9X9XkXkXkXkXkXkXlXlXkXkXkXkX",
"HXFXFXFXFXFXFXFXGXHXFXNXgXCX7X].+.> K.` Y A @ . c.b.~ x < ] .X9XkXxXvXmXBXNXNXCXuXbX<Xj.1.b N.aXT.&.E.D.D.D.Z.' ^ OX>X6X8X9XjXkXkXkXkXkXkXkXkXkX",
"FXFXFXFXFXDXFXFXGXGXvX2X#X7X#Xh.o.+ &X5.G $ . X D.b.~ ] D.x.~ s.3X0XxXvXMXNXCXaXpX0X#Xg.t.+.L uX!.Q.J.C.T.G.C.z.R :.).@X<X7X9X9XjXkXkXkXkXkXkXkX",
"FXFXFXFXDXDXFXFXGXAX7X X[. X'.f.v ; &X5.G #   A J.b.~ ~ x.k.E x 7.>X0XxXbXgXdX0X>X#X].j.y.+.8 !.Q.Y.D.E.W.l.= F.B 5 ;.d.oX>X6X8X9X9XkXkXkXkXkXkX",
"FXFXFXFXFXFXFXGXJXbX#X].'.'.(.3.f #.R.4.G @ X Y H.k.~ ~ ~ E x < 6 2.$X0XdXuXvX>X X'.h.h.f.<.8 K.!.E.H.Q.H.N.N.c.1 % e %.d.oX>X6X7X9X9X9XjXjXkXkX",
"FXDXFXFXFXFXFXKXZXfX&Xg.f.h.f.O.8 &.L.I S   X ` n.~ ! E T 6 3 6.` ^ 7.&XrXyX2XOXj.u.y.u.t.O.9 F wXqXT.D.G.c.Q 1 #.XXg.X.;./.+X>X6X8X9X9X9XjXjXkX",
"FXFXFXDXFXFXGXJXCXuXqXS.2.3.3.+.> *.L.I =   X ) k.E z e ; . K.L.` F C G.pX0X3.<.,.@.+.o.b h 9 & F.E.G.C.) R 2 -.>X'.3.b } w._.=X<X6X8X9X9X9XjXjX",
"FXFXDXFXFXFXGXZXfXrX!.c.C ^ / n ; %XB.H =   ; ) z o K.L.5.I R.B._ F * 0.<X[.,.J |.K.l q 0 0 0 0 ) G.' R 1 o -.6X[.u.O.v i  .p.{.;X<X6X8X8X9XjXjX",
"FXFXDXDXFXFXHXCXaXrXqXG.K.wXT.( I.L.I K A   I.n.6 -.R.5.4._ _ _ _ S * , >.1.7.ZXCXgXR.n X.:.X.X.^ ' 1 o X -.7X Xf.3...f q a 8./.+X>X6X7X8X8X9X9X",
"FXFXDXDXFXFXHXCXrXrXwXE.rXrXQ.' Y _ = F 4 ; U.k.z *.L.5._ I D 5.I S & 3 < n -XLXgXdXtXK B.V.S 4.5.F q q $.7XOXg.y.y.1.+.j y  .e.`.=X<X6X7X8X9X9X",
"FXDXVXVXFXFXHXCXrXrXQ.E.uXrXT.) 3 % X & &.F.x.b.b.^ A._ _ I ` _ U = % }.zXpXbXSXK.%XpXm.B.B.F 4.5.= 0 k :.j.f.y.f.y.t.1.v y { 8./.+X>X3X6X8X8X9X",
"FXDXVXDXFXFXGXCXrXQ.qXwXQ.E.V.T , O ; K.H.x.n.! E 6 _ 5._ _ L I F * }.LXCXgXgXCXdXpXtXK.A 4.I H S # O q :.7.7.,.1.t.1.O.v q a ;.p.{.;X<X6X7X8X8X",
"FXDXDXVXDXFXGXSXrX!.qXY.D.C.R V N.) J.b.n.v.x > ; -.$._ _ _ I I A $ 1XSXaX&.CXbXdX%X&.%X$ B.I S $ . . *.qX!.G.R d v b v g e u  .e._.@X>X6X7X8X8X",
"FXDXDXDXDXFXFXSXfXQ.J.Z.) B 2 U n.~ ~ b.! < + + zX0X Xl L _ _ K = $ }.CXdXiXdXpXP pX&.%X* L._ D $ . D uXqXT.Z.( & & 4 5 5 e r } w.).@X>X6X6X7X8X",
"FXDXVXVXDXDXFXZXfXT.' Z 2 & O & T Z.b.x , + > ~.MX>Xh.X.O w F G * + w dXdXpX: CX%XdXU m.: A.I S # . I.uXT.H.Z.) 2 4 Z Z Z g r } w.).+X;X<X6X7X8X",
"FXDXVXVXVXDXFXAXfXU.6 & % O & i $.H.! , #.|.-X0X6X Xf.b + - i e 3 > 8 4.yXdX%X%XyXI.: P D B.H S @ . yXeXF.U T.C.l.F.Z.Q Z g u | w.).+X;X<X6X6X8X",
"FXDXVXVXVXDXFXAXfXQ.S._ 4 0 *.5.` ^ 6 + 5X7X$X@X X].u.o.> - l :.:.X.o.>.2.A.%XtX%XM.m.*.D N.H = @ $ rXqXC.*.qXJ.H.D.b.' C g u  .e.).+X;X>X6X6X7X",
"FXDXVXVXVXVXDXFXCXwXL.5.L K R.A._ 4 i i cX<X[.[.[.'.f.+.> + i.s.3.r.g.>X#Xt.h g J K Y A *.B.G = . % wXW.E.wXJ.J.` U D.) C e p ;.e._.+X;X>X3X6X7X",
"DXVXVXVXVXVXFXFXZXE.V.4.I 5.B.4.I = O s -X X].h.'.f.t.b + |.2X Xj.j.2X#Xj.3.h q k l k J S.5.G = . $ Q.!.E.U m.H.` N.D.( C i a %.e.).+X;X>X<X6X7X",
"DXVXVXVXVXVXVXDXAX&X5._ _ D B._ G % X 0 ;.r.t.t.t.t.1.b 0 7X#Xj.j.j.].j.a.3.c + i ;.9.P.A.G G A $ X T.!.T.` I.F.G C.c.R 7 u p  .w.).oX;X>X6X6X7X",
"DXVXVXVXVXVXVXDXVXsX5._ I 4.` H A @ w 0.X.<.<.>.@.,.@.c 0 2X].:.i.j.g.2.[ t.f O k X.9.S.I $ G S # X N.!.T.Y.D.l.S C.Q V i u r { 8./.oX;X>X3X6X7X",
"DXVXVXVXVXVXVXVXVXAXR.` _ _ H S $ ; oX].,.v r..XR.L.( 9 + #X].r.|.j.a.a.s.<.8 0.h.>.| ;.& . = * $ O U H.b.z.z.) ) R V i a r r { 8./.oX;X>X<X6X7X",
"DXVXVXVXVXVXVXVXVXVXbXV._ I S * . i.:X].@.c %XuXqXY.D.) 7 0. X].a.a.:.g.1.v > '.'.1.o.`.XX;.O & 2 o 4 R C N N 1 1 1 g a u r t } w./.+X;X>X3X6X7X",
"DXVXVXVXVXBXVXVXVXVXAXyX5.H = . . XX$Xh.@.6.CXrXQ.G.Y.H.( g r.j.a.a.[ j.n 9 q OX'.t.h.#X].1., z.~ T 3 j l 7 N N N g a a p { | ;.e._.+X;X>X6X6X7X",
"VXVXVXVXVXVXBXVXVXVXVXbXE.H # s d.>XOXg.@.6.uX!.Y.l.*.qXv.6 d r.a.a.a.,.f > k @X'.f.'.h.t...7 b.k.E , ` x.! T Z C k a p } ;.9.e./.{.@X;X<X6X6X6X",
"VXVXVXBXBXBXBXVXBXVXVXBXdXU.i. XOX X'.y.@.^ rX!.J.U.wX!.G.R 3 h <.a.1.v 9 + s >X'.h.f.t.+.v , v.k.! E n.x.E 6 V g i a } ;.w.d.).{.+X;X>X<X6X6X7X",
"VXVXBXBXBXBXBXBXBXBXVXVXNXyX4X#X].'.h.y.m < E.T.J.W.J.H.U.' 6 q X.>.@.9 + + 8 :X[.f.1.+.h 8 O z.k.! ~ ! ! T 6 g a a { ;.w./._.oX+X=X;X<X3X6X6X7X",
"VXVXBXBXBXBXBXBXBXBXBXVXBXbX4Xj.y.3.t.1.m B.uX) m.Q.Y.Q.T.b.T #.zXBX2Xd > 8 h `.OXt...c 0 $.i R x.! ~ ! E z 7 a p p | 9.d._.oX+X;X;X>X<X6X6X6X7X",
"VXBXBXBXBXBXBXBXBXBXBXBXBXBXbXR.7.m b m m aXqXF.&XU.W.Y.U.v.T 1XDXvX3X<.=.5X5Xg.'...f r -X$Xf.f x.k.! E z 6 i p r a %.e./.{.@X;X;X>X<X3X6X6X7X7X",
"VXBXBXBXBXBXBXBXBXBXBXBXBXBXBXsXE.Z.Q B *.uXY.Y.D.& tXG.C.) C 5XMXxX<X[.mXmXkX[.o.9 > i.7XOXt.v Q k.E T 6 g p u r } 8.d.`.+X;X;X>X<X3X6X6X6X7X7X",
"VXBXBXBXBXBXBXBXBXBXBXBXBXBXBXBXsXT.Z.v.P.qXY.G.G.Y.T.v.W 1   1XmXjX6X6XkXjX<Xu.d 8 | -X3X[.t.b 5 ~ E 6 g p u r s %.w./.oX@X;X>X<X3X6X6X6X6X7X7X",
"VXBXBXBXBXBXBXBXBXBXBXBXBXBXBXBXBXpXY.J.P.T.D.Z.Z.z.W N % . $ *XmXjX7X6X7X>X[.:.$.>X<X3X@X].y.b 3 T z g a p r s  .w.d.`.+X;X>X<X<X6X6X6X6X7X7X7X",
"VXBXBXBXBXBXBXBXBXMXMXMXBXBXBXBXBXMXyXJ.P.7.' W Z M % . % K F =.MXkX6X<X:X'.9.| XX@X X'.'.h.t.b q 5 7 i a p s  .9.p.).oX@X;X>X<X3X6X6X7X7X7X7X7X",
"VXBXBXBXBXBXMXMXBXMXMXMXBXMXMXBXBXBXMX4XG.' R B N * @ @ Y _ F % hXlX3X:X(.9.| O '.'.u.f.u.f.t.b 5 7 i p p { %.w.p.).{.+X;X>X<X6X6X6X6X7X7X7X7X7X",
"BXBXBXBXMXMXMXMXMXMXMXMXMXMXMXMXMXBXBXmX4XY.Z.b.V.` H I 5._ A % =.vX>Xu.;.k O X | 1.1.1.1.1.O.v 7 i p u { ;.w.d.).{.+X;X;X<X<X6X6X6X7X7X7X7X7X7X",
"BXBXBXMXMXMXMXMXMXMXMXMXMXMXMXMXMXMXMXMXmX4XY.Z.S.` _ _ I _ S $ X *Xd.k & X X q.q.| l f h h h h i p r a  .w.d.).{.+X;X;X>X<X6X6X6X7X7X7X7X7X7X7X",
"BXBXMXMXMXMXMXMXMXMXMXMXMXMXMXMXmXMXMXMXMXmX4XU.` _ L L K _ A $ O ; A.( R 1 t  X(.h.3.d 4 5 7 i p r r { ;.e./.{.+X;X:X>X<X3X6X6X7X7X7X7X7X7X7X7X",
"BXMXMXMXMXMXMXMXmXmXmXMXmXmXMXmXMXmXmXMXMXMXmX4XL.^ G L L G A $ O &.qXY.b.Q 2 e.h.r.o.e M V i p a { } ;.w./.`.+X=X;X>X<X3X6X6X7X7X7X7X7X7X7X7X7X",
"BXMXMXMXMXMXMXMXMXmXMXMXmXmXmXmXmXmXmXmXmXmXmXmX0XG.( F G F 4 # X &.uXqXT.v.C ;.h...q = 7 i p a | ;.8.w.d.`.+X@X;X,X<X3X6X6X6X7X7X7X7X7X7X7X7X7X",
"BXMXMXMXMXmXmXmXmXmXmXMXMXmXmXmXmXmXmXmXmXmXmXmXmX0XU.z.R F 4   H R.uXqXwXJ.R 3 X.d = 5 i u a  .8.e.d./.`.oX@X;X>X<X3X6X6X6X7X7X7X7X7X7X7X7X7X7X",
"BXMXMXMXmXmXmXmXmXmXmXmXmXmXmXmXmXmXmXmXmXmXmXmXmXmXsXU.v.Q _ N.qXrXrXrXwXG.W 4 = 4 7 i u a | 8.e./._.{.+X@X;X>X<X3X6X6X6X7X7X7X7X8X8X7X7X7X7X7X",
"MXmXMXmXmXmXmXmXmXmXmXmXmXmXmXmXmXmXmXmXmXmXmXmXmXmXvXsXR.Z.E.!.!.qX!.qX!.F.W 2 = 7 i u u { ;.e./.`.oX@X;X:X>X>X<X3X6X6X7X7X7X7X8X8X8X7X7X7X7X7X",
"BXMXmXmXmXmXmXmXmXmXmXmXmXmXmXmXmXmXmXmXmXmXmXmXmXmXmXvXsXR.T.J.G.Y.Y.U.F.c.W 1 5 i u r { %.w./.`.oX@X;X;X>X<X3X3X6X6X7X7X7X7X7X7X8X7X7X7X7X7X7X",
"BXmXmXmXmXmXmXmXmXmXmXmXmXmXmXmXmXmXmXmXmXmXmXmXmXmXmXmXvXkX&Xb.z.z.' W W R Z 7 i r r a  .9.d._.oX@X;X;X>X<X3X6X6X6X6X7X7X7X7X7X8X8X8X7X7X7X7X7X",
"MXmXmXmXmXmXmXmXmXmXmXmXmXmXmXmXmXmXmXmXmXmXmXmXnXnXmXmXmXvXxX.XQ B N M 4 4 7 q r r r { ;.e.).{.+X;X:X>X<X3X6X6X6X7X7X7X7X8X8X8X7X7X7X7X7X7X7X7X",
"mXmXmXmXmXmXmXmXmXmXmXmXmXmXmXmXmXmXvXvXmXmXnXnXnXnXnXvXmXmXvXxX$X( C M 4 5 r r r r s %.w.^.`.+X@X:X>X<X3X6X6X6X7X7X7X7X8X8X8X8X7X7X7X7X7X7X7X7X",
"mXmXmXmXmXmXmXmXmXmXmXmXmXmXmXmXmXmXnXnXnXnXnXnXvXnXvXvXnXnXnXvXkX2Xs.^ g u s { |  .;.w.d._.oX@X;X>X<X<X6X6X6X7X7X7X7X7X8X8X8X8X8X7X7X7X7X7X7X7X",
"mXmXmXmXmXmXmXmXmXmXmXmXnXmXnXmXnXmXnXvXnXvXvXvXvXvXvXvXvXvXvXcXcXlX8X#Xd.q.q.q.q.e.p./._.oX@X;X>X<X3X3X6X6X7X7X7X7X8X8X8X8X8X8X8X8X7X7X7X7X7X7X",
"mXmXmXmXmXmXmXmXmXnXmXmXnXnXnXnXnXvXvXvXvXvXvXvXvXvXcXcXcXcXcXcXcXcXkX9X<X@XoX`.`.`.`.{.oX@X;X:X>X<X6X6X6X7X7X7X7X7X7X7X8X8X8X8X8X8X7X7X7X7X7X7X",
"mXmXmXmXmXmXmXmXnXvXnXnXvXnXnXvXvXvXvXvXcXcXcXcXcXcXcXcXcXcXcXcXcXcXkXkX9X7X<X:X;X=X=X=X;X:X>X<X<X6X6X6X6X7X7X7X7X8X8X7X7X7X7X7X8X7X7X7X7X7X6X6X",
"mXmXmXmXmXnXnXnXnXnXvXvXvXnXvXvXvXcXvXcXcXcXcXcXcXcXcXcXcXcXcXcXcXcXlXkXkX9X8X6X6X3X<X<X>X<X<X3X6X6X6X6X7X7X7X7X7X8X8X8X7X8X7X8X7X7X7X7X7X6X6X6X",
"mXmXmXmXmXmXvXvXnXvXvXvXvXvXvXvXcXcXcXcXcXcXcXcXcXcXcXlXcXlXcXlXcXlXlXlXkXkX9X9X8X7X6X6X6X6X6X6X6X6X7X7X7X7X8X7X8X8X8X8X7X7X7X8X7X7X7X7X7X6X6X6X",
"mXmXmXnXnXnXvXvXvXvXvXvXvXvXvXcXcXcXcXcXcXcXcXcXcXcXcXcXlXlXcXlXlXlXlXlXlXkXjXjX9X9X8X7X7X7X7X6X7X7X7X7X7X7X8X8X8X8X8X8X8X7X8X7X7X7X7X7X7X6X6X6X",
"mXmXmXmXmXmXmXmXvXnXnXvXvXvXvXvXvXvXvXvXvXvXcXcXcXcXvXcXcXcXcXcXcXcXcXcXcXlXkXkXkXjX9X9X9X8X8X8X8X8X8X8X8X8X8X8X8X8X8X8X8X8X8X8X8X8X7X7X7X7X7X6X"
};
