/* XPM */
static char *dc53cf143b4449dbcb42b71ff61184e7ZLoGbQNCMbpUlEqX[] = {
/* columns rows colors chars-per-pixel */
"72 72 5 1 ",
"  c #FD9EC3",
". c #FC9FC3",
"X c #FAA0C3",
"o c #FBA1C4",
"O c #FEA0C4",
/* pixels */
"OOOOOO                                                                  ",
"OOOOOO                                                                  ",
"OOOOOO                                                                  ",
"OOOOOO                                                                  ",
"OOOOOO                                                                  ",
"OOOOOO                                                                  ",
"OOOOOO                                                                  ",
"OOOOOO                                                                  ",
"OOOOOO                                                                  ",
"OOOOOO                                                                  ",
"OOOOOO                                                                  ",
"OOOOOO                                                                  ",
"OOOOOO                                                                  ",
"OOOOOO                                                                  ",
"OOOOOO                                                                  ",
"                                      OOOOOOOOOOOOOOOOOOOOOOOOOOOOOOOO  ",
"                                      OOOOOOOOOOOOOOOOOOOOOOOOOOOOOOOO  ",
"                                      OOOOOOOOOOOOOOOOOOOOOOOOOOOOOOOO  ",
"                                      OOOOOOOOOOOOOOOOOOOOOOOOOOOOOOOO  ",
"                                      OOOOOOOOOOOOOOOOOOOOOOOOOOOOOOOO  ",
"                                      OOOOOOOOOOOOOOOOOOOOOOOOOOOOOOOO  ",
"                                      OOOOOOOOOOOOOOOOOOOOOOOOOOOOOOOO  ",
"                                      OOOOOOOOOOOOOOOOOOOOOOOOOOOOOOOO  ",
"                                      OOOOOOOOOOOOOOOOOOOOOOOOOOOOOOOO  ",
"                                      OOOOOOOOOOOOOOOOOOOOOOOOOOOOOOOO  ",
"                                      OOOOOOOOOOOOOOOOOOOOOOOOOOOOOOOO  ",
"                                      OOOOOOOOOOOOOOOOOOOOOOOOOOOOOOOO  ",
"                                      OOOOOOOOOOOOOOOOOOOOOOOOOOOOOOOO  ",
"                                      OOOOOOOOOOOOOOOOOOOOOOOOOOOOOOOO  ",
"                                      OOOOOOOOOOOOOOOOOOOOOOOOOOOOOOOO  ",
"                                      OOOOOOOOOOOOOOOOOOOOOOOOOOOOOOOO  ",
"      OOOOOOOOOOOOOOOOOOOOOOOOOOOOOOOOOOOOOOOOOOOOOOOO                  ",
"      OOOOOOOOOOOOOOOOOOOOOOOOOOOOOOOOOOOOOOOOOOOOOOOO                  ",
"      OOOOOOOOOOOOOOOOOOOOOOOOOOOOOOOOOOOOOOOOOOOOOOOO                  ",
"      OOOOOOOOOOOOOOOOOOOOOOOOOOOOOOOOOOOOOOOOOOOOOOOO                  ",
"      OOOOOOOOOOOOOOOOOOOOOOOOOOOOOOOOOOOOOOOOOOOOOOOO                  ",
"      OOOOOOOOOOOOOOOOOOOOOOOOOOOOOOOOOOOOOOOOOOOOOOOO                  ",
"      OOOOOOOOOOOOOOOOOOOOOOOOOOOOOOOOOOOOOOOOOOOOOOOO                  ",
"      OOOOOOOOOOOOOOOOOOOOOOOOOOOOOOOOOOOOOOOOOOOOOOOO                  ",
"      OOOOOOOOOOOOOOOOOOOOOOOOOOOOOOOOOOOOOOOOOOOOOOOO                  ",
"      OOOOOOOOOOOOOOOOOOOOOOOOOOOOOOOOOOOOOOOOOOOOOOOO                  ",
"      OOOOOOOOOOOOOOOOOOOOOOOOOOOOOOOOOOOOOOOOOOOOOOOO                  ",
"      OOOOOOOOOOOOOOOOOOOOOOOOOOOOOOOOOOOOOOOOOOOOOOOO                  ",
"      OOOOOOOOOOOOOOOOOOOOOOOOOOOOOOOOOOOOOOOOOOOOOOOO                  ",
"      OOOOOOOOOOOOOOOOOOOOOOOOOOOOOOOOOOOOOOOOOOOOOOOO                  ",
"      OOOOOOOOOOOOOOOOOOOOOOOOOOOOOOOOOOOOOOOOOOOOOOOO                  ",
"      OOOOOOOOOOOOOOOOOOOOOOOOOOOOOOOOOOOOOOOOOOOOOOOO                  ",
"OOOOOO                                                                OO",
"OOOOOO                                                                OO",
"OOOOOO                                                                OO",
"OOOOOO                                                                OO",
"OOOOOO                                                                OO",
"OOOOOO                                                                OO",
"OOOOOO                                                                OO",
"OOOOOO                                                                OO",
"OOOOOO                                                                OO",
"OOOOOO                                                                OO",
"OOOOOO                                                XXXXXXXX        OO",
"OOOOOO                                                XXXXXXXX        OO",
"OOOOOO                                                                OO",
"OOOOOO                                                                OO",
"OOOOOO                                                                OO",
"OOOOOO                                                                OO",
"      OOOOOOOOOOOOOOOO                                OOOOOOOOOOOOOOOOOO",
"      OOOOOOOOOOOOOOOO                                OOOOOOOOOOOOOOOOOO",
"      OOOOOOOOOOOOOOOO                                OOOOOOOOOOOOOOOOOO",
"      OOOOOOOOOOOOOOOO                                OOOOOOOOOOOOOOOOOO",
"      OOOOOOOOOOOOOOOO                                OOOOOOOOOOOOOOOOOO",
"      OOOOOOOOOOOOOOOO                                OOOOOOOOOOOOOOOOOO",
"      OOOOOOOOOOOOOOOO                                OOOOOOOOOOOOOOOOOO",
"      OOOOOOOOOOOOOOOO                                OOOOOOOOOOOOOOOOOO",
"      OOOOOOOOOOooOOOO                                OOOOOOOOOOOOOOOOOO"
};
