/* XPM */
static char *_6ca32f2a56140cd9d4e2d479c29f1d8pZCfckvQWeTFV0L6[] = {
/* columns rows colors chars-per-pixel */
"72 72 212 2 ",
"   c #022D3B",
".  c #043137",
"X  c #03323B",
"o  c #033A45",
"O  c #0B3E45",
"+  c #043E4B",
"@  c #113F47",
"#  c #6F3F51",
"$  c #703F52",
"%  c #0A424B",
"&  c #0E424C",
"*  c #13424B",
"=  c #1B454C",
"-  c #1E484F",
";  c #054655",
":  c #0D4552",
">  c #044855",
",  c #0C4A54",
"<  c #054C5C",
"1  c #0A4D59",
"2  c #124651",
"3  c #154A53",
"4  c #1D4B53",
"5  c #194B55",
"6  c #1D4E59",
"7  c #0D515E",
"8  c #16535D",
"9  c #1C515B",
"0  c #22474E",
"q  c #23494E",
"w  c #2D4D4F",
"e  c #224B53",
"r  c #274E56",
"t  c #304F53",
"y  c #265056",
"u  c #2B5157",
"i  c #23535B",
"p  c #2C535B",
"a  c #305056",
"s  c #065161",
"d  c #0C5562",
"f  c #0C5967",
"g  c #065A6A",
"h  c #0C5C6B",
"j  c #145562",
"k  c #185965",
"l  c #135C6A",
"z  c #225760",
"x  c #2E5661",
"c  c #245A65",
"v  c #0B6777",
"b  c #106876",
"n  c #116978",
"m  c #10717E",
"M  c #6F4052",
"N  c #744355",
"B  c #7A465A",
"V  c #7C485C",
"C  c #655A6C",
"Z  c #72596C",
"A  c #834C61",
"S  c #0C6F82",
"D  c #097486",
"F  c #0C7A8C",
"G  c #167786",
"H  c #147C8D",
"J  c #077F91",
"K  c #0B7E91",
"L  c #5C7386",
"P  c #8C758A",
"I  c #B46F86",
"U  c #BF718D",
"Y  c #A67B97",
"T  c #BE7391",
"R  c #B67A97",
"E  c #C0718E",
"W  c #C27391",
"Q  c #C97897",
"!  c #CD7B9B",
"~  c #D27D9E",
"^  c #1C818F",
"/  c #0A8395",
"(  c #0A869A",
")  c #0A8A9D",
"_  c #168697",
"`  c #138B9B",
"'  c #1B8D9C",
"]  c #16909F",
"[  c #258D9C",
"{  c #378296",
"}  c #0A8EA1",
"|  c #188FA1",
" . c #0B93A5",
".. c #0B96AA",
"X. c #0B9AAD",
"o. c #1493A4",
"O. c #1C94A5",
"+. c #1696A8",
"@. c #139BAB",
"#. c #1B9DAD",
"$. c #0B9EB1",
"%. c #139FB1",
"&. c #368CA0",
"*. c #2393A5",
"=. c #2A96A7",
"-. c #269CAC",
";. c #3599AA",
":. c #1DA0AF",
">. c #0BA2B4",
",. c #0BA6BA",
"<. c #0BAABD",
"1. c #13A3B5",
"2. c #1BA4B5",
"3. c #19A9B7",
"4. c #14A6B9",
"5. c #1CA6B8",
"6. c #14ABBC",
"7. c #1CACBC",
"8. c #1EB0BF",
"9. c #25A3B3",
"0. c #2BA5B5",
"q. c #27A7B8",
"w. c #24ABBC",
"e. c #2BABBB",
"r. c #3CAABC",
"t. c #29B0BE",
"y. c #30B0BE",
"u. c #55889D",
"i. c #538FA3",
"p. c #5291A4",
"a. c #0BADC1",
"s. c #12AFC1",
"d. c #1DAEC0",
"f. c #0CB3C5",
"g. c #0EB6C8",
"h. c #07BECD",
"j. c #0EBBCC",
"k. c #14B4C5",
"l. c #1BB2C3",
"z. c #13B6C9",
"x. c #13BBCC",
"c. c #1BBCCD",
"v. c #38AEC3",
"b. c #24B5C4",
"n. c #2BB4C2",
"m. c #2BB9C7",
"M. c #2AB4C8",
"N. c #24BECC",
"B. c #2CBDCC",
"V. c #31B4C3",
"C. c #31BDCB",
"Z. c #38B8C9",
"A. c #4EAEC3",
"S. c #47B5C8",
"D. c #56B4C8",
"F. c #6CAFC6",
"G. c #73AEC6",
"H. c #7EABC3",
"J. c #64B3C9",
"K. c #6DB2C9",
"L. c #0CC0CF",
"P. c #24C0CF",
"I. c #2DC0CE",
"U. c #31C0CC",
"Y. c #32C2D0",
"T. c #8F8398",
"R. c #AB819D",
"E. c #8D98B2",
"W. c #9C99B3",
"Q. c #9A98B5",
"!. c #AA8FA9",
"~. c #A894AF",
"^. c #A498B4",
"/. c #B79EBE",
"(. c #91A3BB",
"). c #BFA1BF",
"_. c #CE819D",
"`. c #CA86A5",
"'. c #D781A1",
"]. c #DC84A4",
"[. c #DD87A9",
"{. c #CB94B4",
"}. c #D49CBD",
"|. c #E085A7",
" X c #E287A9",
".X c #E48AAC",
"XX c #E98DAE",
"oX c #EB8FB1",
"OX c #ED91B4",
"+X c #E89BBF",
"@X c #F293B5",
"#X c #F596BA",
"$X c #F997BC",
"%X c #F799BD",
"&X c #FB99BF",
"*X c #86ACC6",
"=X c #9BA9C5",
"-X c #82B0C9",
";X c #A6A8C5",
":X c #A4AAC6",
">X c #B2A7C5",
",X c #BCA4C3",
"<X c #D69EC0",
"1X c #DC9EC1",
"2X c #E69FC2",
"3X c #EB9CC0",
"4X c #F49BC0",
"5X c #FB9AC0",
"6X c #C2A4C3",
"7X c #CEA2C3",
"8X c #D4A1C2",
"9X c #DAA0C2",
/* pixels */
"&X&X&X&X&X&X&X&X&X&X&X&X&X&X&X&X&X&X&X&X&X&X&X&X&X&X&X&X&X&X&X&X&X&X&X&X&X&X&X&X&X&X&X&X&X&X&X&X&X&X&X&X&X&X&X&X&X&X&X&X&X&X&X&X&X&X&X&X&X&X&X&X",
"&X&X&X&X&X&X&X&X&X&X&X&X&X&X&X&X&X&X&X&X&X&X&X&X&X&X&X&X&X&X&X&X&X&X&X&X&X&X&X&X&X&X&X&X&X&X&X&X&X&X&X&X&X&X&X&X&X&X&X&X&X&X&X&X&X&X&X&X&X&X&X&X",
"&X&X&X&X&X&X&X&X&X&X&X&X&X&X&X&X&X&X&X&X&X&X&X&X&X&X&X&X&X&X&X&X&X&X&X&X&X&X&X&X&X&X&X&X&X&X&X&X&X&X&X&X&X&X&X&X&X&X&X&X&X&X&X&X&X&X&X&X&X&X&X&X",
"&X&X&X&X&X&X&X&X&X&X&X&X&X&X&X&X&X&X&X&X&X&X&X&X&X&X&X&X&X&X&X&X&X&X&X&X&X&X&X&X&X&X&X&X&X&X&X&X&X&X&X&X&X&X&X&X&X&X&X&X&X&X&X&X&X&X&X&X&X&X&X&X",
"&X&X&X&X&X&X&X&X&X&X&X&X&X&X&X&X&X&X&X&X&X&X&X&X&X&X&X&X&X&X&X&X&X&X&X&X&X&X&X&X&X&X&X&X&X&X&X&X&X&X&X&X&X&X&X&X&X&X&X&X&X&X&X&X&X&X&X&X&X&X&X&X",
"&X&X&X&X&X&X&X&X&X&X&X&X&X&X&X&X&X&X&X&X&X&X&X&X&X&X&X&X&X&X&X&X&X&X&X&X5X&X&X&X&X&X&X&X&X&X&X&X&X&X&X&X&X&X&X&X&X&X&X&X&X&X&X&X&X&X&X&X&X&X&X&X",
"&X&X&X&X&X&X&X&X&X&X&X&X&X&X&X&X&X&X&X&X&X&X&X&X&X&X&X&X&X&X&X&X5X&X&X:X=X&X&X&X&X&X&X&X&X&X&X&X&X&X&X&X&X&X&X&X&X&X&X&X&X&X&X&X&X&X&X&X&X&X&X&X",
"&X&X&X&X&X&X&X&X&X&X&X&X&X&X&X&X&X&X&X&X&X&X&X&X&X&X&X&X&X&X&X&X&X5X:Xc.c.:X5X&X&X&X&X&X&X&X&X&X&X&X&X&X&X&X&X&X&X&X&X&X&X&X&X&X&X&X&X&X&X&X&X&X",
"&X&X&X&X&X&X&X&X&X&X&X&X&X&X&X&X&X&X&X&X&X&X&X&X&X&X&X&X&X&X&X&X&X>XN.h.h.c.>X&X5X&X&X&X&X&X&X&X&X&X&X&X&X&X&X&X&X&X&X&X&X&X&X&X&X&X&X&X&X&X&X&X",
"&X&X&X&X&X&X&X&X&X&X&X&X&X&X&X&X&X&X&X&X&X&X&X&X&X&X&X&X&X&X&X&X5XJ.L.j.j.h.D.4X5X5X&X&X&X&X&X&X&X&X&X&X&X&X&X&X&X&X&X&X&X&X&X&X&X&X&X&X&X&X&X&X",
"&X&X&X&X&X&X&X&X&X&X&X&X&X&X&X&X&X&X&X&X&X&X&X&X&X&X&X&X&X&X&X&X>Xe.f.j.h.g.9./.5X&X&X5X&X&X&X&X&X&X&X&X&X&X&X&X&X&X&X&X&X&X&X&X&X&X&X&X&X&X&X&X",
"&X&X&X&X&X&X&X&X&X&X&X&X&X&X&X&X&X&X&X&X&X&X&X&X&X&X&X&X&X&X&X6Xe.v D ) } K v 0.,X&X&X&X&X&X&X&X&X&X&X&X&X&X&X&X&X&X&X&X&X&X&X&X&X&X&X&X&X&X&X&X",
"&X&X&X&X&X&X&X&X&X&X&X&X&X&X&X&X&X&X&X&X&X&X&X&X&X&X&X&X&X&X<Xv.F v K F K ( D F r.<X&X&X&X&X&X&X&X&X&X&X&X&X&X&X&X&X&X&X&X&X&X&X&X&X&X&X&X&X&X&X",
"&X&X&X&X&X&X&X&X&X&X&X&X&X&X&X&X&X&X&X&X&X&X&X&X&X&X&X&X&X4XG.) S )  .) o.X...F  .G.4X&X&X&X&X&X&X&X&X&X&X&X&X&X&X&X&X&X&X&X&X&X&X&X&X&X&X&X&X&X",
"&X&X&X&X&X&X&X&X&X&X&X&X&X&X&X&X&X&X&X&X&X&X&X&X&X&X&X&X4X-X@.D } X.>.+.@.>.$.X.J @.-X4X&X&X&X&X&X&X&X&X&X&X&X&X&X&X&X&X&X&X&X&X&X&X&X&X&X&X&X&X",
"&X&X&X&X&X&X&X&X&X&X&X&X&X&X&X&X&X&X&X&X&X&X&X&X&X&X&X5X=X4.D } X.>.<.%.%.<.,.,.$./ 4.=X5X&X&X&X&X&X&X&X&X&X&X&X&X&X&X&X&X&X&X&X&X&X&X&X&X&X&X&X",
"&X&X&X&X&X&X&X&X&X&X&X&X&X&X&X&X&X&X&X&X&X&X&X&X&X&X&X:X7.F ) X.>.<.a.1.1.a.a.<.,.X./ 7.:X5X&X&X&X&X&X&X&X&X&X&X&X&X&X&X&X&X&X&X&X&X&X&X&X&X&X&X",
"&X&X&X&X&X&X&X&X&X&X&X&X&X&X&X&X&X&X&X&X&X&X&X&X&X&X8Xe.D ( X.>.<.<.f.4.4.f.a.a.a.<...K e.7X&X&X&X&X&X&X&X&X&X&X&X&X&X&X&X&X&X&X&X&X&X&X&X&X&X&X",
"&X&X&X&X&X&X&X&X&X&X&X&X&X&X&X&X&X&X&X&X&X&X&X&X&X2XD.( S X.>.,.<.f.f.4.3.g.f.@.o.,.,./ } D.2X&X&X&X&X&X&X&X&X&X&X&X&X&X&X&X&X&X&X&X&X&X&X&X&X&X",
"&X&X&X&X&X&X&X&X&X&X&X&X&X&X&X&X&X&X&X&X&X&X&X&X3XJ. .K ( $.<.<.f.g.g.4.3.j.1.; o H a.o.} ..J.3X&X&X&X&X&X&X&X&X&X&X&X&X&X&X&X&X&X&X&X&X&X&X&X&X",
"&X&X&X&X&X&X&X&X&X&X&X&X&X&X&X&X&X&X&X&X&X&X&X4XK.X.F ..| ,.a.f.g.g.g.6.3.6.S X   G f.@.,.) $.K.3X&X&X&X&X&X&X&X&X&X&X&X&X&X&X&X&X&X&X&X&X&X&X&X",
"&X&X&X&X&X&X&X&X&X&X&X&X&X&X&X&X&X&X&X&X&X&X&X*X%.F  .$.+.6._ F ,.f.1.H h ; o     n s.2.<.,.) 1.*X&X&X&X&X&X&X&X&X&X&X&X&X&X&X&X&X&X&X&X&X&X&X&X",
"&X&X&X&X&X&X&X&X&X&X&X&X&X&X&X&X&X&X&X&X&X&X6Xq.F } $.,.#.@.; + f h ; X   o % +   o #.5.f.a.>./ w.6X&X&X&X&X&X&X&X&X&X&X&X&X&X&X&X&X&X&X&X&X&X&X",
"&X&X&X&X&X&X&X&X&X&X&X&X&X&X&X&X&X&X&X&X&X7Xv.K ) $.,.<.2.5.f + o o + 1 b ] 4.@.f b 7.5.f.f.<.X.) v.7X&X&X&X&X&X&X&X&X&X&X&X&X&X&X&X&X&X&X&X&X&X",
"&X&X&X&X&X&X&X&X&X&X&X&X&X&X&X&X&X&X&X&X8XS.( / X.>.<.f.5.z.` o o b 1.5.l.j.j.j.z.z.z.5.f.f.a.<. .} S.8X&X&X&X&X&X&X&X&X&X&X&X&X&X&X&X&X&X&X&X&X",
"&X&X&X&X&X&X&X&X&X&X&X&X&X&X&X&X&X&X&X1XA.} K ..>.<.a.f.5.z.o.+ o ] L.8.l.j.j.j.j.j.z.5.g.g.f.a.<.)  .A.1X&X&X&X&X&X&X&X&X&X&X&X&X&X&X&X&X&X&X&X",
"&X&X&X&X&X&X&X&X&X&X&X&X&X&X&X&X&X&X&XG...S  .>.<.a.f.f.5.k.z.` ` k.j.7.8.j.j.j.j.j.z.7.g.g.f.f.a.$.H X.G.5X&X&X&X&X&X&X&X&X&X&X&X&X&X&X&X&X&X&X",
"&X&X&X&X&X&X&X&X&X&X&X&X&X&X&X&X&X&X:X5./ _ X.,.a.f.f.g.7.k.j.j.x.j.j.7.8.j.j.j.j.j.z.7.g.g.f.f.f.,.o.} 7.:X&X&X&X&X&X&X&X&X&X&X&X&X&X&X&X&X&X&X",
"&X&X&X&X&X&X&X&X&X&X&X&X&X&X&X&X&X>Xw./  .o.$.<.f.f.g.g.7.k.x.j.j.j.j.7.8.j.j.j.x.x.z.7.j.g.g.f.f.4.#.>.} w.>X&X&X&X&X&X&X&X&X&X&X&X&X&X&X&X&X&X",
"&X&X&X&X&X&X&X&X&X&X&X&X&X&X&X&X,Xn.( } $.@.1.f.f.g.g.g.7.k.x.x.x.x.j.7.8.j.x.x.x.x.k.w.j.j.g.g.g.4.2.<.X. .M.,X&X&X&X&X&X&X&X&X&X&X&X&X&X&X&X&X",
"&X&X&X&X&X&X&X&X&X&X&X&X&X&X&X8Xv.) ) $.,.1.4.g.z.z.z.j.7.k.x.x.x.x.x.7.8.j.x.x.x.x.k.d.x.x.z.g.z.4.3.a.,.X. .v.7X&X&X&X&X&X&X&X&X&X&X&X&X&X&X&X",
"&X&X&X&X&X&X&X&X&X&X&X&X&X&X4XF. ./ X.>.<.4.4.z.z.z.z.j.7.k.x.x.x.x.x.8.l.j.x.x.x.x.k.b.x.x.x.z.z.5.7.f.<.<. .X.K.4X&X&X&X&X&X&X&X&X&X&X&X&X&X&X",
"&X&X&X&X&X&X&X&X&X&X&X&X&X4X-X;.H X.>.,.a.6.5.z.z.x.x.x.7.l.x.x.x.z.6.#.:.k.z.x.x.x.l.l.x.x.x.x.x.5.l.z.f.<.,.` ;.-X4X&X&X&X&X&X&X&X&X&X&X&X&X&X",
"&X&X&X&X&X&X&X&X&X&X&X&X5X*Xr.P { >.,.s.k.k.5.z.x.x.x.x.d.l.x.6.` b j , , f n ` s.x.l.l.x.x.x.x.x.5.k.z.k.s.<.&.P r.*X5X5X&X&X&X&X&X&X&X&X&X&X&X",
"&X&X&X&X&X&X&X&X&X&X&X&X=Xv.T.I u.,.6.k.z.k.5.x.x.x.x.x.l.7.o.l & O & O O & & : h +.d.l.x.x.x.x.x.5.x.z.z.k.a.i.I T.V.=X5X&X&X&X&X&X&X&X&X&X&X&X",
"&X&X&X&X&X&X&X&X&X&X&X+X~.!._.].E.6.k.k.k.z.5.c.x.x.x.x.l.G , @ & & & O O & & & & , G l.x.x.x.x.x.q.x.x.z.k.s.E.].! !.~.+X&X&X&X&X&X&X&X&X&X&X&X",
"&X&X&X&X&X&X&X&X&X&X&X&X&X&X&X&X/.d.k.z.x.c.5.c.x.x.x.x.' : & * * * * @ @ * * * * O & ] x.x.x.x.z.w.c.x.x.z.d./.&X&X&X&X&X&X&X&X&X&X&X&X&X&X&X&X",
"&X&X&X&X&X&X&X&X&X&X&X&X&X&X&X&X<Xn.z.c.c.c.7.k.x.x.x.5.f & 2 2 2 * * * @ * * * * * O d 3.c.c.x.k.w.c.c.c.x.n.}.&X&X&X&X&X&X&X&X&X&X&X&X&X&X&X&X",
"&X&X&X&X&X&X&X&X&X&X&X&X&X&X&X&X+XS.x.c.c.c.7.k.c.c.c.H , 2 3 3 3 3 = * @ * * * * * * & H c.c.c.l.w.c.c.c.x.S.+X&X&X&X&X&X&X&X&X&X&X&X&X&X&X&X&X",
"&X&X&X&X&X&X&X&X&X&X&X&X&X&X&X&X%XD.c.c.c.c.w.l.c.c.l.l 3 3 3 5 5 3 3 * * = = = = = = 2 f l.c.c.l.w.c.c.c.x.D.%X&X&X&X&X&X&X&X&X&X&X&X&X&X&X&X&X",
"&X&X&X&X&X&X&X&X&X&X&X&X&X&X&X&X&XH.c.c.N.c.w.d.c.c.2.d 8 5 3 4 4 4 4 = * - - - 4 = = 3 1 2.c.c.w.b.c.c.c.c.H.&X&X&X&X&X&X&X&X&X&X&X&X&X&X&X&X&X",
"&X&X&X&X&X&X&X&X&X&X&X&X&X&X&X&X&X=XN.N.N.N.b.w.N.N.O.d 8 4 4 i 4 4 4 = = 4 4 e e - 3 3 1 O.P.c.w.b.N.N.N.N.=X&X&X&X&X&X&X&X&X&X&X&X&X&X&X&X&X&X",
"&X&X&X&X&X&X&X&X&X&X&X&X&X&X&X&X&X,Xm.N.N.N.b.w.N.N.O.d 8 9 4 i i e e = = e e e e - 4 5 1 *.P.N.w.b.N.N.N.m.,X&X&X&X&X&X&X&X&X&X&X&X&X&X&X&X&X&X",
"&X&X&X&X&X&X&X&X&X&X&X&X&X&X&X&X&X<XZ.N.N.N.m.q.N.N.-.f j 9 4 i y y y - - r r r r - 4 6 7 -.P.N.q.m.N.N.N.Z.}.&X&X&X&X&X&X&X&X&X&X&X5X5X5X5X5X5X",
"&X&X&X&X&X&X&X&X&X&X&X&X&X&X&X&X&X3XS.P.B.B.N.q.N.B.9.f k i 6 p y p u - 4 y u u r 0 e 8 d 9.I.B.e.B.N.N.N.S.+X&X&X&X&X&X&X&X&X&X&X&X&X&X&X&X&X&X",
"&X&X&X&X&X&X&X&X&X&X&X&X&X&X&X&X&X%XJ.N.B.B.B.q.B.B.9.h k i 6 p p p u 0 e p p p p e e 8 f e.I.B.e.B.B.B.N.J.%X&X&X&X&X&X&X&X&X&X&X&X&X&X&X&X&X&X",
"&X&X&X&X&X&X&X&X&X&X&X&X&X&X&X&X&X&X*XB.B.B.B.q.B.B.e.b k z 6 p p p p e e p p p p e i 8 h y.I.m.e.B.B.B.B.*X&X&X&X&X&X&X&X&X&X&X&X&X&X&X&X&X&X&X",
"&X&X&X&X&X&X&X&X&X&X&X&X&X&X&X&X&X&X:XB.B.B.B.w.m.I.n.b l c i x p p p e e p p p p 4 i j b n.I.m.e.B.B.B.B.:X&X&X&X&X&X&X&X&X&X&X&X&X&X&X&X&X&X&X",
"&X&X&X&X&X&X&X&X&X&X&X&X&X&X&X&X&X&X6XC.B.B.B.e.m.I.n.m l c i x x p p e e p p p p 4 i j b V.I.n.e.I.B.B.C.).&X&X&X&X&X&X&X&X&X5X5X5X5X5X5X5X5X5X",
"&X&X&X&X&X&X&X&X&X&X&X&X&X&X&X&X&X&X9XZ.B.B.B.e.m.I.n.m l c 9 x x p p 0 0 p p p p 4 i j n V.I.n.y.B.B.B.Z.}.&X&X&X&X&X&X&X&X&X5X5X5X5X5X5X5X5X5X",
"&X&X&X&X&X&X&X&X&X&X&X&X&X&X&X&X&X&X3XD.B.B.I.y.n.B.m.G l c 6 x x p p e 0 u a a u 4 i j G C.I.n.V.B.B.B.D.3X&X&X&X&X&X&X&X&X&X&X&X&X&X&X&X&X&X&X",
"&X&X&X&X&X&X&X&X&X&X&X&X&X&X&X&X&X&X%XK.B.B.B.n.t.I.B.G l c 6 p p p p e 0 t t t u 4 i j G C.I.e.V.B.B.B.F.%X&X&X&X&X&X&X&X&X&X&X&X&X&X&X&X&X&X&X",
"&X&X&X&X&X&X&X&X&X&X&X&X&X&X&X&X&X&X&X*XB.B.B.n.e.I.B.H l c 5 p p p p e 0 t t t t = i j H U.B.e.V.B.B.B.*X5X&X&X&X&X&X&X&X&X&X&X&X&X&X&X&X&X&X&X",
"&X&X&X&X&X&X&X&X&X&X&X&X&X&X&X&X&X&X&X:XB.B.B.m.e.B.C.^ l c 5 p p p p 0 0 t w w w = y d ^ U.C.e.C.B.B.B.:X&X&X&X&X&X&X&X&X&X&X&X&X&X&X&X&X&X&X&X",
"&X&X&X&X&X&X&X&X&X&X&X&X&X&X&X&X&X&X&X6XC.C.B.m.e.B.C._ f k 5 i i y r = = q q q 0 * 9 d _ U.C.e.C.C.C.Z.6X&X&X&X&X&X&X&X&X&X&X&X&X&X&X&X&X&X&X&X",
"&X&X&X&X&X&X&X&X&X&X&X&X&X&X&X&X&X&X&X9XS.B.B.B.e.B.U.' g f 1 7 7 1 , O O * & & & O 1 s ' U.B.e.C.B.B.S.1X&X&X&X&X&X&X&X&X&X&X&X&X&X&X&X&X&X&X&X",
"&X&X&X&X&X&X&X&X&X&X&X&X&X&X&X&X&X&X&X3XD.B.B.C.e.m.U.' ; ; + + + o o . . . . . . X + % [ U.m.e.C.B.B.D.+X&X&X&X&X&X&X&X&X&X&X&X&X&X&X&X&X&X&X&X",
"&X&X&X&X&X&X&X&X&X&X&X&X&X&X&X&X&X&X&X%XK.I.C.C.e.m.U.O.s s < < < < < ; ; ; ; > > > < s *.Y.m.e.C.C.B.F.%X&X&X&X&X&X&X&X&X&X&X&X&X&X&X&X&X&X&X&X",
"&X&X$X$X$X$X$X$X&X&X&X&X&X&X$X&X&X$X&X&X*Xn.n.n.9.e.n.#.F F F F F F F F F F F F F F F F 9.n.e.0.n.n.n.(.&X&X$X$X$X$X$X$X$X$X$X$X$X$X$X$X$X$X$X$X",
"$X$X#X$X$X$X$X$X$X$X$X#X#X#X#X#X#X#X#X$X=Xn.n.n.n.n.n.n.m.m.m.m.m.m.m.m.m.m.m.m.m.m.m.m.m.n.n.n.n.n.n.(.$X#X#X#X#X#X#X#X#X#X#X#X#X#X#X#X#X#X#X#X",
"#X#X#X#X#X#X#X#X#X#X#X#X@X@X@X@X@X@X@X@X{.^.Q.;.O.O.*.i.W.W.W.W.W.W.W.W.W.W.W.W.W.W.W.W.p.*.| | =.E.^.{.OXOXOXOXOX@X@X@X@X@X@X@X@X@X@X@X@X@X#X#X",
"#X#X#X#X@X@X@X@X@X@XOXOXOXoXoXXXXXXX.X.X.X X`.;.*.*.[ L U W W W W E E E E E U U U U E U L =.*.*.&.`.].].[.[. X.X.X.X.XXXXXXXXXoXoXoXOXOXOX@X@X@X",
"@X@X@X@X@XOXOXoXoXXXXX.X.X X X].].].].~ ~ ! R r.0.0.;.C A A V V B N N N $ # # M N N N B C ;.0.0.;.Y Q Q ! ~ ~ ~ '.].].|. X X.X.XXXXXXXoXOXOXOXOX",
"@X@X@X@X@XOXOXoXoXXXXX.X.X X X].].].'.~ ! Q R ;.-.-.=.Z A V V B B N N N N N N N N B B V Z =.-.-.;.Y W Q Q ! ~ ~ '.].]. X X.X.XXXXXXXoXOXOX@X@X@X",
"#X#X#X#X@X@X@X@XOXOXOXOXoXoXoXXX.X.X X[.[.].`.R.Y Y Y T T T T T W W W W T T T T T T T T T Y Y Y Y ! '.].[. X X X.XXXXXoXoXoXOXOXOX@X@X@X@X@X@X#X",
"$X#X#X#X#X#X#X#X#X@X@X#X#X#X#X@XOXOXOXOXOXOXOXOXOXOXOXOXOXOXOXOXOXoXoXoXoXoXoXoXoXoXOXOXOXOXOXOXOXOXOXOXOXOXOXOX@X@X@X#X#X#X#X#X#X#X#X#X#X#X#X#X",
"&X&X&X&X&X&X&X&X%X%X%X%X%X%X%X#X#X#X#X#X#X#X#X#X#X#X#X#X#X#X#X#X#X#X#X#X#X#X#X#X#X#X#X#X#X#X#X#X#X#X#X#X%X%X#X#X#X#X#X%X%X%X%X%X&X&X&X&X&X&X$X$X",
"&X&X&X&X&X&X&X&X&X&X&X&X&X&X&X&X&X&X&X&X&X&X&X%X&X&X&X&X%X%X%X%X%X%X%X%X%X%X%X%X%X%X%X%X%X%X%X%X%X&X&X&X&X&X&X&X&X&X&X&X&X&X&X&X&X&X&X&X&X&X&X&X",
"&X&X&X&X&X&X&X&X&X&X&X&X&X&X&X&X&X&X&X&X&X&X&X&X&X&X&X&X&X&X&X&X&X&X&X&X&X&X&X&X&X&X&X&X&X&X&X&X&X&X&X&X5X&X&X&X&X&X&X&X&X&X&X&X&X&X&X&X&X&X&X&X",
"&X&X&X&X&X&X&X&X&X&X&X&X&X&X&X&X&X&X&X&X&X&X&X&X&X&X&X&X&X&X&X&X&X&X&X&X&X&X&X&X&X&X&X&X&X&X&X&X&X&X&X&X5X5X&X&X&X&X&X&X&X&X&X&X&X&X&X&X&X&X&X&X",
"&X&X&X&X&X&X&X&X&X&X&X&X&X&X&X&X&X&X&X&X&X&X&X&X&X&X&X&X&X&X&X&X&X&X&X&X&X&X&X&X&X&X&X&X&X&X&X&X&X&X&X&X&X&X&X&X&X&X&X&X&X&X&X&X&X&X&X&X&X&X&X&X",
"&X&X&X&X&X&X&X&X&X&X&X&X&X&X&X&X&X&X&X&X&X&X&X&X&X&X&X&X&X&X&X&X&X&X&X&X&X&X&X&X&X&X&X&X&X&X&X&X&X&X&X&X&X&X&X&X&X&X&X&X&X&X&X&X&X&X&X&X&X&X&X&X"
};
